SplineFontDB: 3.0
FontName: Besly-it-Book
FullName: Besly* Book
FamilyName: Besly*
Weight: Book
Copyright: 
UComments: "2016-4-15: Created with FontForge (http://fontforge.org)"
Version: 001.000
ItalicAngle: 0
UnderlinePosition: -100
UnderlineWidth: 50
Ascent: 800
Descent: 200
InvalidEm: 0
LayerCount: 2
Layer: 0 0 "Back" 1
Layer: 1 0 "Fore" 0
XUID: [1021 31 -699969567 16487490]
FSType: 0
OS2Version: 0
OS2_WeightWidthSlopeOnly: 0
OS2_UseTypoMetrics: 1
CreationTime: 1460762150
ModificationTime: 1463537038
PfmFamily: 17
TTFWeight: 400
TTFWidth: 5
LineGap: 90
VLineGap: 0
OS2TypoAscent: 0
OS2TypoAOffset: 1
OS2TypoDescent: 0
OS2TypoDOffset: 1
OS2TypoLinegap: 90
OS2WinAscent: 0
OS2WinAOffset: 1
OS2WinDescent: 0
OS2WinDOffset: 1
HheadAscent: 0
HheadAOffset: 1
HheadDescent: 0
HheadDOffset: 1
OS2Vendor: 'PfEd'
OS2UnicodeRanges: 00000001.00000000.00000000.00000000
MarkAttachClasses: 1
DEI: 91125

StartChar: ampersand
Encoding: 38 38 0
Width: 800
Flags: HW
LayerCount: 2
Back
SplineSet
488 73 m 5
 452.666666667 39.6666666667 417.333333333 17 382 5 c 132
 346.666666667 -7 309.666666667 -13 271 -13 c 4
 231 -13 195.333333333 -7.83333333333 164 2.5 c 132
 132.666666667 12.8333333333 106.333333333 27.1666666667 85 45.5 c 132
 63.6666666667 63.8333333333 47.5 85.3333333333 36.5 110 c 132
 25.5 134.666666667 20 161 20 189 c 4
 20 219.666666667 26.1666666667 247.833333333 38.5 273.5 c 132
 50.8333333333 299.166666667 67.5 322.666666667 88.5 344 c 132
 109.5 365.333333333 132 384.333333333 156 401 c 132
 180 417.666666667 210.666666667 434 248 450 c 5
 239 465 l 5
 216.333333333 499 203.166666667 519.666666667 199.5 527 c 4
 186.5 553 180 579.333333333 180 606 c 4
 180 627.333333333 184 647.833333333 192 667.5 c 132
 200 687.166666667 212.166666667 704.333333333 228.5 719 c 132
 244.833333333 733.666666667 265.166666667 745.333333333 289.5 754 c 132
 313.833333333 762.666666667 342.333333333 767 375 767 c 4
 402.333333333 767 427.333333333 763.833333333 450 757.5 c 132
 472.666666667 751.166666667 492 742.166666667 508 730.5 c 132
 524 718.833333333 536.5 705 545.5 689 c 132
 554.5 673 559 655.333333333 559 636 c 4
 559 623.333333333 556.5 609.666666667 551.5 595 c 132
 546.5 580.333333333 537.5 565.666666667 524.5 551 c 132
 511.5 536.333333333 491 520.666666667 463 504 c 132
 435 487.333333333 403.333333333 471.333333333 368 456 c 5
 548 173 l 5
 560.666666667 189 574.666666667 211.166666667 590 239.5 c 132
 605.333333333 267.833333333 616.666666667 293.5 624 316.5 c 132
 631.333333333 339.5 637.166666667 362.833333333 641.5 386.5 c 132
 645.833333333 410.166666667 648.333333333 433 649 455 c 5
 530 455 l 5
 530 480 l 5
 791 480 l 5
 791 455 l 5
 683 455 l 5
 682.333333333 431 679.166666667 405.666666667 673.5 379 c 132
 667.833333333 352.333333333 660.333333333 326 651 300 c 132
 641.666666667 274 628.666666667 245.5 612 214.5 c 132
 595.333333333 183.5 580.666666667 159.333333333 568 142 c 5
 647 25 l 5
 766 25 l 5
 766 0 l 5
 535 0 l 5
 488 73 l 5
335 36 m 4
 355.666666667 36 376.833333333 40.8333333333 398.5 50.5 c 132
 420.166666667 60.1666666667 444.333333333 77 471 101 c 5
 266 423 l 5
 211.333333333 398.333333333 176.333333333 373.166666667 161 347.5 c 4
 140.333333333 309.906154211 130 274.072820877 130 240 c 4
 130 186 145.833333333 139.666666667 177.5 101 c 4
 213.166666667 57.6666666667 265.666666667 36 335 36 c 4
258 662 m 4
 258 640.666666667 262.666666667 622 272 606 c 4
 290.102272727 574.488636363 299.768939394 557.821969697 301 556 c 6
 351 482 l 5
 377.666666667 492.666666667 404.5 512 431.5 540 c 132
 458.5 568 472 600 472 636 c 4
 472 668.666666667 464.833333333 693.666666667 450.5 711 c 132
 436.166666667 728.333333333 409.666666667 737 371 737 c 260
 343 737 317.166666667 730 293.5 716 c 132
 269.833333333 702 258 684 258 662 c 4
EndSplineSet
EndChar

StartChar: period
Encoding: 46 46 1
Width: 198
Flags: HW
LayerCount: 2
Back
SplineSet
40 47 m 132
 40 62.3333333333 46 76 58 88 c 132
 70 100 83.8333333333 106 99.5 106 c 4
 114.5 106 128 100 140 88 c 132
 152 76 158 62.1666666667 158 46.5 c 4
 158 31.5 152 18 140 6 c 132
 128 -6 114.166666667 -12 98.5 -12 c 4
 83.5 -12 70 -6 58 6 c 132
 46 18 40 31.6666666667 40 47 c 132
EndSplineSet
Fore
SplineSet
40 50 m 4
 40 83 67 110 100 110 c 4
 133 110 160 83 160 50 c 4
 160 17 133 -10 100 -10 c 4
 67 -10 40 17 40 50 c 4
EndSplineSet
EndChar

StartChar: zero
Encoding: 48 48 2
Width: 530
Flags: HW
LayerCount: 2
Back
SplineSet
2 360 m 260
 2 463.333007812 28.8330078125 551.166992188 82.5 623.5 c 132
 136.166992188 695.833007812 202.333007812 732 281 732 c 260
 359.666992188 732 426.5 695.833007812 481.5 623.5 c 4
 534.5 553.833007812 561 466 561 360 c 260
 561 253.333007812 534.5 165.333007812 481.5 96 c 4
 425.833007812 24 359 -12 281 -12 c 260
 202.333007812 -12 136.166992188 24 82.5 96 c 132
 28.8330078125 168 2 256 2 360 c 260
127 360 m 4
 127 239.333007812 139.833007812 147.333007812 165.5 84 c 4
 183.166992188 40 221.666992188 18 281 18 c 132
 340.333007812 18 378.833007812 40 396.5 84 c 4
 422.833007812 148 436 240 436 360 c 4
 436 479.333007812 422.833007812 571 396.5 635 c 4
 378.166992188 679.666992188 339.666992188 702 281 702 c 132
 222.333007812 702 183.833007812 679.666992188 165.5 635 c 4
 139.833007812 571.666992188 127 480 127 360 c 4
EndSplineSet
Fore
SplineSet
145 280 m 0
 145 128 181 40 265 40 c 0
 359 40 385 128 385 280 c 0
 385 432 349 520 265 520 c 0
 181 520 145 432 145 280 c 0
35 280 m 0
 35 473 142 570 265 570 c 0
 388 570 495 473 495 280 c 0
 495 87 378 -10 265 -10 c 0
 142 -10 35 87 35 280 c 0
EndSplineSet
EndChar

StartChar: one
Encoding: 49 49 3
Width: 530
VWidth: 1155
Flags: HW
LayerCount: 2
Back
SplineSet
61 716 m 5
 318 716 l 5
 318 25 l 5
 470 25 l 5
 470 0 l 5
 61 0 l 5
 61 25 l 5
 223 25 l 5
 223 691 l 5
 61 691 l 5
 61 716 l 5
EndSplineSet
Fore
SplineSet
72 465 m 21
 188 465 225 468 275 590 c 13
 275 465 l 5
 72 465 l 21
275 465 m 5
 275 590 l 5
 320 590 l 5
 320 465 l 5
 275 465 l 5
72 465 m 5
 320 465 l 5
 320 410 l 5
 72 410 l 5
 72 465 l 5
55 55 m 5
 225 55 l 5
 225 0 l 5
 55 0 l 5
 55 55 l 5
320 55 m 5
 480 55 l 5
 480 0 l 5
 320 0 l 5
 320 55 l 5
225 420 m 5
 320 420 l 5
 320 0 l 5
 225 0 l 5
 225 420 l 5
EndSplineSet
EndChar

StartChar: two
Encoding: 50 50 4
Width: 530
VWidth: 1155
Flags: HW
LayerCount: 2
Back
SplineSet
498 175 m 5
 498 0 l 5
 18 0 l 5
 18 52 l 5
 263 277 l 6
 303.666992188 314.333007812 336 353.333007812 360 394 c 4
 375.333007812 420 383.166992188 459.5 383.5 512.5 c 132
 383.833007812 565.5 370.5 607.833007812 343.5 639.5 c 132
 316.5 671.166992188 277 687 225 687 c 4
 204.333007812 687 184.833007812 683.833007812 166.5 677.5 c 132
 148.166992188 671.166992188 132 662.666992188 118 652 c 132
 104 641.333007812 93 629.5 85 616.5 c 132
 77 603.5 73 590 73 576 c 4
 73 568.666992188 74.1669921875 563.666992188 76.5 561 c 132
 78.8330078125 558.333007812 82 557 86 557 c 4
 92.6669921875 557 98.3330078125 559 103 563 c 132
 107.666992188 567 116.333007812 569 129 569 c 132
 141.666992188 569 153.166992188 564.333007812 163.5 555 c 132
 173.833007812 545.666992188 179 531.166992188 179 511.5 c 132
 179 491.833007812 172 477.166992188 158 467.5 c 4
 146 459.833007812 132.666992188 456 118 456 c 4
 93.3330078125 456 73.3330078125 466.666992188 58 488 c 4
 44 507.333007812 37 530.333007812 37 557 c 132
 37 583.666992188 43.5 608 56.5 630 c 132
 69.5 652 86.6669921875 670.5 108 685.5 c 132
 129.333007812 700.5 153.666992188 712 181 720 c 132
 208.333007812 728 236.666992188 732 266 732 c 4
 294 732 321.333007812 728.166992188 348 720.5 c 132
 374.666992188 712.833007812 399 701.333007812 421 686 c 132
 443 670.666992188 460.5 651.166992188 473.5 627.5 c 132
 486.5 603.833007812 493 575.666992188 493 543 c 4
 493 531 491.666992188 518.166992188 489 504.5 c 4
 485.666992188 486.833007812 480.833007812 472 474.5 460 c 4
 465.5 442.666992188 455 426.5 443 411.5 c 4
 427 389.833007812 410 371 392 355 c 6
 77 75 l 5
 77 71 l 5
 412 71 l 6
 424 71 433.833007812 72 441.5 74 c 132
 449.166992188 76 455.333007812 80.5 460 87.5 c 132
 464.666992188 94.5 468 104.833007812 470 118.5 c 132
 472 132.166992188 473 151 473 175 c 5
 498 175 l 5
EndSplineSet
Fore
SplineSet
500 157 m 5
 500 12 449 -30 360 -30 c 4
 223 -30 208 30 145 30 c 4
 104 30 89 10 79 -20 c 5
 50 -20 l 5
 70 54 97 97 180 97 c 4
 280 97 290 63 366 63 c 4
 429 63 453 95 453 157 c 5
 500 157 l 5
135 472 m 5
 135 449 167 444 167 408 c 4
 167 371 137 350 110 350 c 4
 81 350 46 368 46 416 c 5
 135 472 l 5
46 416 m 5
 46 498 140 570 262 570 c 4
 383 570 488 520 488 410 c 5
 377 420 l 5
 377 494 341 528 262 528 c 4
 188 528 135 499 135 472 c 5
 46 416 l 5
242 269 m 4
 344.8359375 312.935546875 377 356 377 420 c 5
 488 410 l 5
 488 330 420.857421875 259.379882812 257 210 c 4
 150.1171875 177.790039062 74 80 74 -20 c 5
 30 -20 l 5
 30 127 124.060546875 218.611328125 242 269 c 4
EndSplineSet
EndChar

StartChar: three
Encoding: 51 51 5
Width: 530
VWidth: 1155
Flags: HW
LayerCount: 2
Back
SplineSet
99 401 m 5
 158 401 l 6
 218.666992188 401 262.333007812 416 289 446 c 132
 315.666992188 476 329 518 329 572 c 4
 329 612.666992188 316.5 647 291.5 675 c 4
 275.166992188 693 246 702 204 702 c 4
 179.333007812 702 158.666992188 698.333007812 142 691 c 132
 125.333007812 683.666992188 117 673.666992188 117 661 c 4
 117 651 120 642.5 126 635.5 c 4
 136.666992188 623.833007812 142 611 142 597 c 132
 142 583 136.166992188 571.833007812 124.5 563.5 c 4
 114.833007812 557.166992188 102.666992188 554 88 554 c 4
 71.3330078125 554 58.3330078125 560 49 572 c 132
 39.6669921875 584 35 596.666992188 35 610 c 132
 35 623.333007812 39.3330078125 637.333007812 48 652 c 132
 56.6669921875 666.666992188 69.1669921875 680 85.5 692 c 132
 101.833007812 704 121.833007812 713.666992188 145.5 721 c 132
 169.166992188 728.333007812 196.333007812 732 227 732 c 4
 260.333007812 732 289.333007812 727.5 314 718.5 c 132
 338.666992188 709.5 360 697.5 378 682.5 c 132
 396 667.5 409.833007812 650.166992188 419.5 630.5 c 132
 429.166992188 610.833007812 434 590.666992188 434 570 c 4
 434 532 419.333007812 497.666992188 390 467 c 132
 360.666992188 436.333007812 322.333007812 414.333007812 275 401 c 5
 275 394 l 5
 305.666992188 390 333.333007812 382.333007812 358 371 c 132
 382.666992188 359.666992188 403.666992188 345.5 421 328.5 c 132
 438.333007812 311.5 452 292 462 270 c 132
 472 248 477 224.666992188 477 200 c 4
 477 172.666992188 470.833007812 146.333007812 458.5 121 c 132
 446.166992188 95.6669921875 428.666992188 73.1669921875 406 53.5 c 132
 383.333007812 33.8330078125 355.5 18 322.5 6 c 132
 289.5 -6 251.666992188 -12 209 -12 c 4
 177.666992188 -12 149 -8.6669921875 123 -2 c 132
 97 4.6669921875 74.6669921875 14 56 26 c 132
 37.3330078125 38 23.8330078125 52.1669921875 15.5 68.5 c 132
 7.1669921875 84.8330078125 3 102.333007812 3 121 c 132
 3 139.666992188 8 154.666992188 18 166 c 132
 28 177.333007812 42.6669921875 183 62 183 c 4
 75.3330078125 183 88.1669921875 178.166992188 100.5 168.5 c 132
 112.833007812 158.833007812 119 145.333007812 119 128 c 4
 118.034179688 113.442382812 111.034179688 101.275390625 98 91.5 c 4
 88.6669921875 84.5 84 76.3330078125 84 67 c 132
 84 57.6669921875 87.8330078125 50 95.5 44 c 132
 103.166992188 38 112.833007812 33 124.5 29 c 132
 136.166992188 25 148.5 22.1669921875 161.5 20.5 c 132
 174.5 18.8330078125 186.333007812 18 197 18 c 4
 250.333007812 18 291.166992188 33.6669921875 319.5 65 c 132
 347.833007812 96.3330078125 362 141.333007812 362 200 c 4
 362 255.333007812 347.666992188 297.666992188 319 327 c 132
 290.333007812 356.333007812 243 371 177 371 c 6
 99 371 l 5
 99 401 l 5
EndSplineSet
Fore
SplineSet
495 40 m 1
 394 40 l 1
 394 114 366 211 197 211 c 1
 197 245 l 1
 438 245 495 150 495 40 c 1
60 412 m 1
 60 494 124 570 266 570 c 0
 367 570 475 521 475 401 c 1
 374 401 l 1
 374 475 335 528 246 528 c 0
 182 528 149 495 149 468 c 1
 60 412 l 1
149 468 m 1
 149 445 181 440 181 404 c 0
 181 367 151 346 124 346 c 0
 95 346 60 364 60 412 c 1
 149 468 l 1
30 -1 m 5
 119 -57 l 5
 119 -84 162 -118 246 -118 c 4
 355 -118 394 -34 394 40 c 1
 495 40 l 1
 495 -70 407 -160 256 -160 c 4
 104 -160 30 -83 30 -1 c 5
119 -57 m 5
 30 -1 l 5
 30 47 65 65 94 65 c 4
 121 65 151 44 151 7 c 4
 151 -29 119 -34 119 -57 c 5
197 226 m 1
 197 260 l 1
 366 260 374 337 374 401 c 1
 475 401 l 1
 475 301 438 226 197 226 c 1
EndSplineSet
EndChar

StartChar: four
Encoding: 52 52 6
Width: 530
VWidth: 1155
Flags: HW
LayerCount: 2
Back
SplineSet
370 200 m 5
 370 25 l 5
 467 25 l 5
 467 0 l 5
 164 0 l 5
 164 25 l 5
 275 25 l 5
 275 200 l 5
 -32 200 l 5
 -32 228 l 5
 308 732 l 5
 369 732 l 5
 369 227 l 5
 489 227 l 5
 489 306 l 5
 515 306 l 5
 515 118 l 5
 489 118 l 5
 489 200 l 5
 370 200 l 5
274 227 m 5
 274 622 l 5
 6 231 l 5
 6 227 l 5
 274 227 l 5
EndSplineSet
Fore
SplineSet
505 -95 m 1
 505 -150 l 1
 430 -150 l 1
 430 -95 l 1
 505 -95 l 1
335 -95 m 1
 335 -150 l 1
 240 -150 l 1
 240 -95 l 1
 335 -95 l 1
430 560 m 1
 430 437 l 1
 367 437 l 1
 347 560 l 5
 430 560 l 1
15 105 m 1
 50 105 l 1
 50 65 l 1
 15 65 l 1
 15 105 l 1
50 120 m 1
 520 120 l 1
 520 65 l 1
 50 65 l 1
 50 120 l 1
80 105 m 1
 15 105 l 1
 345 560 l 5
 410 560 l 5
 80 105 l 1
335 480 m 1
 430 560 l 1
 430 -150 l 1
 335 -150 l 1
 335 480 l 1
EndSplineSet
EndChar

StartChar: five
Encoding: 53 53 7
Width: 530
VWidth: 1155
Flags: HW
LayerCount: 2
Back
SplineSet
109 716 m 5
 375 716 l 6
 385.666992188 716 394.833007812 716.5 402.5 717.5 c 132
 410.166992188 718.5 416.666992188 720.166992188 422 722.5 c 132
 427.333007812 724.833007812 432 728 436 732 c 132
 440 736 443.666992188 741.333007812 447 748 c 5
 472 748 l 5
 436 635 l 5
 134 635 l 5
 134 635 l 5
 110 421 l 5
 121.333007812 425 136.833007812 428.666992188 156.5 432 c 132
 176.166992188 435.333007812 199.333007812 437 226 437 c 4
 312.666992188 437 381.333007812 416.666992188 432 376 c 4
 481.333007812 336 506 284.666992188 506 222 c 4
 506 156 478.833007812 100.166992188 424.5 54.5 c 4
 371.5 10.1669921875 306 -12 228 -12 c 4
 198.666992188 -12 171.5 -8.8330078125 146.5 -2.5 c 132
 121.5 3.8330078125 99.6669921875 13 81 25 c 132
 62.3330078125 37 47.6669921875 51.3330078125 37 68 c 132
 26.3330078125 84.6669921875 21 103 21 123 c 4
 21 138.333007812 26.1669921875 152.833007812 36.5 166.5 c 132
 46.8330078125 180.166992188 61.6669921875 187 81 187 c 4
 96.3330078125 187 108.833007812 183.333007812 118.5 176 c 4
 129.5 167.333007812 135 155.666992188 135 141 c 4
 135 125.666992188 129.666992188 112.833007812 119 102.5 c 132
 108.333007812 92.1669921875 103 80 103 66 c 260
 103 58 105.833007812 51 111.5 45 c 132
 117.166992188 39 124.833007812 34 134.5 30 c 132
 144.166992188 26 155.333007812 23 168 21 c 132
 180.666992188 19 193.666992188 18 207 18 c 4
 264.333007812 18 308.833007812 33.6669921875 340.5 65 c 132
 372.166992188 96.3330078125 388 144 388 208 c 4
 388 266 369.166992188 316.166992188 331.5 358.5 c 4
 303.833007812 390.166992188 261 406 203 406 c 4
 181.666992188 406 160.333007812 403.333007812 139 398 c 132
 117.666992188 392.666992188 100.666992188 385.666992188 88 377 c 5
 72 387 l 5
 109 716 l 5
EndSplineSet
Fore
SplineSet
144 565 m 5
 102 197 l 5
 52 197 l 1
 94 565 l 1
 144 565 l 5
495 80 m 1
 394 60 l 1
 394 194 335 261 246 261 c 0
 183 261 141 247 106 197 c 1
 52 197 l 1
 93 274 147 310 258 310 c 0
 419 310 495 220 495 80 c 1
30 -11 m 1
 119 -67 l 1
 119 -94 172 -118 226 -118 c 0
 325 -118 394 -44 394 60 c 1
 495 80 l 1
 495 -70 377 -160 236 -160 c 0
 114 -160 30 -93 30 -11 c 1
119 -67 m 1
 30 -11 l 1
 30 37 65 55 94 55 c 0
 121 55 151 34 151 -3 c 0
 151 -39 119 -44 119 -67 c 1
94 475 m 1
 94 565 l 1
 247 565 l 2
 371 565 383 546 420 597 c 1
 465 597 l 1
 458 565 l 2
 440.098632812 483.1640625 422 475 185 475 c 2
 94 475 l 1
EndSplineSet
EndChar

StartChar: six
Encoding: 54 54 8
Width: 522
VWidth: 1155
Flags: HWO
LayerCount: 2
Back
SplineSet
506.908203125 723 m 5
 414.241210938 715.666992188 340.07421875 685.333007812 284.408203125 632 c 4
 220.741210938 571.333007812 183.908203125 502.666992188 173.908203125 426 c 5
 176.908203125 425 l 5
 194.908203125 441 217.57421875 453.166992188 244.908203125 461.5 c 132
 272.241210938 469.833007812 299.57421875 474 326.908203125 474 c 4
 360.241210938 474 391.57421875 468 420.908203125 456 c 132
 450.241210938 444 475.908203125 427.333007812 497.908203125 406 c 132
 519.908203125 384.666992188 537.241210938 359.666992188 549.908203125 331 c 132
 562.57421875 302.333007812 568.908203125 271.333007812 568.908203125 238 c 4
 568.908203125 202 561.57421875 168.666992188 546.908203125 138 c 132
 532.241210938 107.333007812 512.57421875 80.8330078125 487.908203125 58.5 c 132
 463.241210938 36.1669921875 434.908203125 18.8330078125 402.908203125 6.5 c 132
 370.908203125 -5.8330078125 337.57421875 -12 302.908203125 -12 c 4
 266.241210938 -12 232.07421875 -4.8330078125 200.408203125 9.5 c 132
 168.741210938 23.8330078125 141.07421875 44.1669921875 117.408203125 70.5 c 132
 93.7412109375 96.8330078125 75.2412109375 128.5 61.908203125 165.5 c 132
 48.57421875 202.5 41.908203125 244 41.908203125 290 c 4
 41.908203125 353.333007812 54.7412109375 412.666992188 80.408203125 468 c 132
 106.07421875 523.333007812 140.408203125 571.666992188 183.408203125 613 c 132
 226.408203125 654.333007812 275.908203125 687.333007812 331.908203125 712 c 132
 387.908203125 736.666992188 446.241210938 750 506.908203125 752 c 5
 506.908203125 723 l 5
159.908203125 221 m 4
 159.908203125 151.666992188 172.241210938 97.1669921875 196.908203125 57.5 c 4
 213.57421875 31.1669921875 248.241210938 18 300.908203125 18 c 4
 354.908203125 18 390.408203125 32 407.408203125 60 c 4
 431.741210938 100.666992188 443.908203125 157.666992188 443.908203125 231 c 260
 443.908203125 301.666992188 432.57421875 358.833007812 409.908203125 402.5 c 4
 395.908203125 430.166992188 367.57421875 444 324.908203125 444 c 4
 252.908203125 444 201.241210938 418.666992188 169.908203125 368 c 5
 163.241210938 328 159.908203125 279 159.908203125 221 c 4
EndSplineSet
Fore
SplineSet
22.908203125 350 m 1
 122.908203125 350 l 5
 122.908203125 260 l 1
 52.908203125 240 l 1
 22.908203125 350 l 1
492.908203125 230 m 1
 392.908203125 230 l 1
 392.908203125 344 345.908203125 411 266.908203125 411 c 0
 183.908203125 411 122.908203125 340 122.908203125 260 c 1
 88.908203125 260 l 1
 88.908203125 367 157.908203125 460 288.908203125 460 c 0
 399.908203125 460 492.908203125 380 492.908203125 230 c 1
345.908203125 651 m 1
 442.908203125 601 l 1
 442.908203125 553 407.908203125 535 378.908203125 535 c 0
 351.908203125 535 321.908203125 556 321.908203125 593 c 0
 321.908203125 629 345.908203125 638 345.908203125 651 c 1
442.908203125 601 m 1
 345.908203125 651 l 1
 345.908203125 664 330.908203125 678 291.908203125 678 c 4
 162.908203125 678 122.908203125 514 122.908203125 350 c 5
 22.908203125 350 l 5
 22.908203125 550 125.908203125 720 286.908203125 720 c 4
 368.908203125 720 442.908203125 683 442.908203125 601 c 1
492.908203125 230 m 1
 492.908203125 110 402.908203125 -10 261.908203125 -10 c 0
 100.908203125 -10 22.908203125 110 22.908203125 350 c 1
 122.908203125 260 l 1
 122.908203125 156 172.908203125 35 271.908203125 35 c 0
 360.908203125 35 392.908203125 146 392.908203125 230 c 1
 492.908203125 230 l 1
EndSplineSet
EndChar

StartChar: seven
Encoding: 55 55 9
Width: 540
VWidth: 1155
Flags: HW
LayerCount: 2
Back
SplineSet
84 716 m 5
 495 716 l 5
 495 704 l 5
 360 408 l 6
 331.458984375 345.844726562 314.79296875 303.344726562 310 280.5 c 4
 300.666992188 236.166992188 296 193.666992188 296 153 c 4
 296 130.333007812 300.5 112.666992188 309.5 100 c 132
 318.5 87.3330078125 323 72.6669921875 323 56 c 4
 323 38 317.833007812 22.1669921875 307.5 8.5 c 132
 297.166992188 -5.1669921875 281.333007812 -12 260 -12 c 4
 236.666992188 -12 219.166992188 -5.1669921875 207.5 8.5 c 132
 195.833007812 22.1669921875 189.5 40 188.5 62 c 4
 187.5 88 196.166992188 124.5 214.5 171.5 c 4
 228.328125 206.913085938 243.161132812 241.74609375 259 276 c 6
 425 635 l 5
 171 635 l 6
 157 635 145.166992188 633.833007812 135.5 631.5 c 132
 125.833007812 629.166992188 117.166992188 624.333007812 109.5 617 c 132
 101.833007812 609.666992188 94.6669921875 599.333007812 88 586 c 132
 81.3330078125 572.666992188 74 555 66 533 c 5
 41 533 l 5
 84 716 l 5
EndSplineSet
Fore
SplineSet
35 393 m 1
 35 538 86 580 175 580 c 0
 312 580 327 520 390 520 c 0
 431 520 446 540 456 570 c 1
 485 570 l 1
 465 496 438 453 355 453 c 0
 255 453 245 487 169 487 c 0
 106 487 82 455 82 393 c 1
 35 393 l 1
  Spiro
    35 393 v
    51.486 505.843 o
    99.2104 563.775 o
    175 580 o
    277.555 564.471 o
    336.754 535.529 o
    390 520 o
    423.085 526.284 o
    443.571 543.726 o
    456 570 v
    485 570 v
    460.882 506.83 o
    421.097 466.862 o
    355 453 o
    279.28 461.8 o
    228.728 478.2 o
    169 487 o
    118.483 476.429 o
    90.5379 444.884 o
    82 393 v
    0 0 z
  EndSpiro
279 42 m 1
 279 -31 312 -46 312 -92 c 0
 312 -129 292 -160 248 -160 c 0
 209 -160 182 -123 182 -54 c 1
 279 42 l 1
333 218 m 0
 286.8359375 124.239257812 279 86 279 42 c 1
 182 -54 l 1
 182 35 212.767578125 127.19921875 279 231 c 0
 357.5 354.02734375 461 520 461 570 c 1
 505 570 l 1
 505 503 401.41015625 356.943359375 333 218 c 0
EndSplineSet
EndChar

StartChar: eight
Encoding: 56 56 10
Width: 530
VWidth: 1155
Flags: HWO
LayerCount: 2
Back
SplineSet
23 190 m 4
 23 210 28 229.833007812 38 249.5 c 132
 48 269.166992188 61.6669921875 287.166992188 79 303.5 c 132
 96.3330078125 319.833007812 117.166992188 334.166992188 141.5 346.5 c 132
 165.833007812 358.833007812 192.333007812 368 221 374 c 5
 221 378 l 5
 197 382.666992188 174.666992188 390.333007812 154 401 c 132
 133.333007812 411.666992188 115.5 424.5 100.5 439.5 c 132
 85.5 454.5 73.8330078125 471.666992188 65.5 491 c 132
 57.1669921875 510.333007812 53 531.666992188 53 555 c 4
 53 579.666992188 58 602.666992188 68 624 c 132
 78 645.333007812 92.6669921875 664 112 680 c 132
 131.333007812 696 155.666992188 708.666992188 185 718 c 132
 214.333007812 727.333007812 248.666992188 732 288 732 c 4
 326.666992188 732 360.666992188 727.333007812 390 718 c 132
 419.333007812 708.666992188 443.833007812 696 463.5 680 c 132
 483.166992188 664 497.833007812 645.333007812 507.5 624 c 132
 517.166992188 602.666992188 522 579.666992188 522 555 c 4
 522 531.666992188 517.833007812 510.333007812 509.5 491 c 132
 501.166992188 471.666992188 489.666992188 454.5 475 439.5 c 132
 460.333007812 424.5 442.666992188 411.666992188 422 401 c 132
 401.333007812 390.333007812 379 382.666992188 355 378 c 5
 355 374 l 5
 383.666992188 368 410 358.833007812 434 346.5 c 132
 458 334.166992188 478.666992188 319.666992188 496 303 c 132
 513.333007812 286.333007812 527 268.333007812 537 249 c 132
 547 229.666992188 552 210 552 190 c 4
 552 162 546.5 135.666992188 535.5 111 c 132
 524.5 86.3330078125 508 64.8330078125 486 46.5 c 132
 464 28.1669921875 436.5 13.8330078125 403.5 3.5 c 132
 370.5 -6.8330078125 331.666992188 -12 287 -12 c 260
 242.333007812 -12 203.5 -6.8330078125 170.5 3.5 c 132
 137.5 13.8330078125 110 28.1669921875 88 46.5 c 132
 66 64.8330078125 49.6669921875 86.3330078125 39 111 c 132
 28.3330078125 135.666992188 23 162 23 190 c 4
143 190 m 4
 143 128.666992188 155.666992188 84.6669921875 181 58 c 132
 206.333007812 31.3330078125 241.666992188 18 287 18 c 260
 332.333007812 18 367.833007812 31.3330078125 393.5 58 c 132
 419.166992188 84.6669921875 432 128.666992188 432 190 c 4
 432 245.333007812 419.333007812 287.666992188 394 317 c 132
 368.666992188 346.333007812 333 361 287 361 c 4
 241.666992188 361 206.333007812 346.166992188 181 316.5 c 132
 155.666992188 286.833007812 143 244.666992188 143 190 c 4
412 550 m 4
 412 604.666992188 400.833007812 643.666992188 378.5 667 c 132
 356.166992188 690.333007812 326 702 288 702 c 260
 250 702 219.666992188 690.333007812 197 667 c 132
 174.333007812 643.666992188 163 604.666992188 163 550 c 4
 163 497.333007812 174.333007812 456.833007812 197 428.5 c 132
 219.666992188 400.166992188 250 386 288 386 c 260
 326 386 356.166992188 400.166992188 378.5 428.5 c 132
 400.833007812 456.833007812 412 497.333007812 412 550 c 4
EndSplineSet
Fore
SplineSet
160 530 m 4
 160 456 196 385 265 385 c 0
 334 385 370 456 370 530 c 4
 370 604 334 675 265 675 c 0
 196 675 160 604 160 530 c 4
60 530 m 4
 60 640 144 720 265 720 c 0
 386 720 470 640 470 530 c 4
 470 420 386 355 265 355 c 0
 144 355 60 420 60 530 c 4
140 190 m 4
 140 106 176 35 265 35 c 0
 354 35 390 106 390 190 c 4
 390 274 354 345 265 345 c 0
 176 345 140 274 140 190 c 4
40 190 m 4
 40 310 124 375 265 375 c 0
 406 375 490 310 490 190 c 4
 490 70 406 -10 265 -10 c 0
 124 -10 40 70 40 190 c 4
EndSplineSet
EndChar

StartChar: nine
Encoding: 57 57 11
Width: 530
VWidth: 1155
Flags: HW
LayerCount: 2
Back
SplineSet
100 -3 m 1
 192.666992188 4.3330078125 266.833007812 34.6669921875 322.5 88 c 0
 386.166992188 148.666992188 423 217.333007812 433 294 c 1
 430 295 l 1
 412 279 389.333007812 266.833007812 362 258.5 c 128
 334.666992188 250.166992188 307.333007812 246 280 246 c 0
 246.666992188 246 215.333007812 252 186 264 c 128
 156.666992188 276 131 292.666992188 109 314 c 128
 87 335.333007812 69.6669921875 360.333007812 57 389 c 128
 44.3330078125 417.666992188 38 448.666992188 38 482 c 0
 38 518 45.3330078125 551.333007812 60 582 c 128
 74.6669921875 612.666992188 94.3330078125 639.166992188 119 661.5 c 128
 143.666992188 683.833007812 172 701.166992188 204 713.5 c 128
 236 725.833007812 269.333007812 732 304 732 c 0
 340.666992188 732 374.833007812 724.833007812 406.5 710.5 c 128
 438.166992188 696.166992188 465.833007812 675.833007812 489.5 649.5 c 128
 513.166992188 623.166992188 531.666992188 591.5 545 554.5 c 128
 558.333007812 517.5 565 476 565 430 c 0
 565 366.666992188 552.166992188 307.333007812 526.5 252 c 128
 500.833007812 196.666992188 466.5 148.333007812 423.5 107 c 128
 380.5 65.6669921875 331 32.6669921875 275 8 c 128
 219 -16.6669921875 160.666992188 -30 100 -32 c 1
 100 -3 l 1
447 499 m 0
 447 568.333007812 434.666992188 622.833007812 410 662.5 c 0
 393.333007812 688.833007812 358.666992188 702 306 702 c 0
 252 702 216.5 688 199.5 660 c 0
 175.166992188 619.333007812 163 562.333007812 163 489 c 256
 163 418.333007812 174.333007812 361.166992188 197 317.5 c 0
 211 289.833007812 239.333007812 276 282 276 c 0
 354 276 405.666992188 301.333007812 437 352 c 1
 443.666992188 392 447 441 447 499 c 0
EndSplineSet
Fore
Refer: 8 54 S -1 1.22465e-16 -1.22465e-16 -1 530 560 2
EndChar

StartChar: A
Encoding: 65 65 12
Width: 860
Flags: HW
LayerCount: 2
Back
SplineSet
-111.641601562 25 m 5
 -22.6416015625 25 l 5
 235.358398438 766 l 5
 265.358398438 766 l 5
 512.358398438 25 l 5
 605.358398438 25 l 5
 605.358398438 0 l 5
 292.358398438 0 l 5
 292.358398438 25 l 5
 408.358398438 25 l 5
 338.358398438 236 l 5
 82.3583984375 236 l 5
 10.3583984375 25 l 5
 128.358398438 25 l 5
 128.358398438 0 l 5
 -111.641601562 0 l 5
 -111.641601562 25 l 5
211.358398438 613 m 5
 91.3583984375 261 l 5
 329.358398438 261 l 5
 211.358398438 613 l 5
 211.358398438 613 l 5
EndSplineSet
Fore
SplineSet
200 275 m 1
 660 275 l 1
 660 220 l 1
 200 220 l 1
 200 275 l 1
530 55 m 1
 860 55 l 1
 860 0 l 1
 530 0 l 1
 530 55 l 1
0 55 m 1
 280 55 l 1
 280 0 l 1
 0 0 l 1
 0 55 l 1
395 700 m 5
 465 760 l 5
 770 0 l 1
 660 0 l 1
 395 700 l 5
406 760 m 5
 465 760 l 5
 139 0 l 1
 75 0 l 1
 406 760 l 5
EndSplineSet
EndChar

StartChar: B
Encoding: 66 66 13
Width: 770
Flags: HW
LayerCount: 2
Back
SplineSet
380 754 m 6
 442 754 494.5 737.5 537.5 704.5 c 4
 575.833007812 674.833007812 595 630.666992188 595 572 c 4
 595 521.047851562 582 480.713867188 556 451 c 4
 528 417.666992188 490.666992188 399 444 395 c 5
 498.666992188 389.666992188 542.166992188 369.166992188 574.5 333.5 c 4
 606.833007812 301.5 623 258.333007812 623 204 c 4
 623 134 601.833007812 83.3330078125 559.5 52 c 4
 513.166992188 17.3330078125 453.333007812 0 380 0 c 6
 14 0 l 5
 14 25 l 5
 124 25 l 5
 124 729 l 5
 14 729 l 5
 14 754 l 5
 380 754 l 6
510 209 m 4
 510 274.333007812 496 319.5 468 344.5 c 132
 440 369.5 390.666992188 382 320 382 c 6
 218 382 l 5
 218 25 l 5
 340 25 l 6
 398 25 438.166992188 36.8330078125 460.5 60.5 c 4
 493.5 95.5 510 145 510 209 c 4
218 729 m 5
 218 412 l 5
 340 412 l 6
 394.666992188 412 431.166992188 422 449.5 442 c 4
 476.5 471.333007812 490 513.333007812 490 568 c 4
 490 624.666992188 476 668.5 448 699.5 c 4
 430 719.166992188 394 729 340 729 c 6
 218 729 l 5
EndSplineSet
Fore
SplineSet
430 415 m 1
 506 415 580 456 580 555 c 0
 580 654 506 695 430 695 c 1
 430 750 l 1
 581 750 680 685 680 555 c 0
 680 425 591 380 430 380 c 1
 430 415 l 1
150 750 m 1
 245 750 l 1
 245 0 l 1
 150 0 l 1
 150 750 l 1
40 750 m 1
 150 750 l 1
 150 695 l 1
 40 695 l 1
 40 750 l 1
40 55 m 5
 150 55 l 5
 150 0 l 1
 40 0 l 1
 40 55 l 5
240 415 m 1
 450 415 l 1
 450 360 l 1
 240 360 l 1
 240 415 l 1
240 750 m 1
 430 750 l 1
 430 695 l 1
 240 695 l 1
 240 750 l 1
240 55 m 5
 440 55 l 5
 450 0 l 1
 240 0 l 1
 240 55 l 5
440 55 m 5
 526 55 600 111 600 210 c 0
 600 309 526 360 440 360 c 1
 450 395 l 1
 611 395 710 340 710 210 c 0
 710 60 611 0 450 0 c 1
 440 55 l 5
EndSplineSet
EndChar

StartChar: C
Encoding: 67 67 14
Width: 785
Flags: HW
LayerCount: 2
Back
SplineSet
388 -12 m 4
 298.666992188 -12 219.666992188 27.1669921875 151 105.5 c 4
 91 173.833007812 61 264.333007812 61 377 c 260
 61 489 91.5 579.5 152.5 648.5 c 4
 222.166992188 726.833007812 301.666992188 766 391 766 c 4
 423 766 452.666992188 761 480 751 c 132
 507.333007812 741 533.666992188 725.333007812 559 704 c 5
 598 754 l 5
 623 754 l 5
 623 528 l 5
 598 528 l 5
 592.666992188 556 585 582.5 575 607.5 c 132
 565 632.5 551.666992188 654.5 535 673.5 c 132
 518.333007812 692.5 498.166992188 707.666992188 474.5 719 c 132
 450.833007812 730.333007812 422.666992188 736 390 736 c 4
 320.666992188 736 271.5 712.333007812 242.5 665 c 4
 201.5 598.333007812 181 502.333007812 181 377 c 260
 181 250.333007812 201.166992188 154.333007812 241.5 89 c 4
 270.5 41.6669921875 319.333007812 18 388 18 c 4
 422.666992188 18 452.333007812 23 477 33 c 132
 501.666992188 43 522.666992188 56.6669921875 540 74 c 132
 557.333007812 91.3330078125 571.333007812 111.833007812 582 135.5 c 132
 592.666992188 159.166992188 601 184.666992188 607 212 c 5
 632 212 l 5
 632 0 l 5
 607 0 l 5
 573 46 l 5
 546.333007812 26 517 11.3330078125 485 2 c 132
 453 -7.3330078125 420.666992188 -12 388 -12 c 4
EndSplineSet
Fore
SplineSet
660 620 m 17
 700 750 l 9
 700 550 l 1
 660 620 l 17
700 495 m 1
 700 750 l 1
 745 750 l 1
 745 495 l 1
 700 495 l 1
735 495 m 1
 690 495 l 1
 680 597 584 710 440 710 c 0
 266 710 170 557 170 375 c 1
 55 375 l 1
 55 598 232 760 435 760 c 0
 628 760 735 598 735 495 c 1
755 295 m 5
 745 122 623 -10 420 -10 c 4
 207 -10 55 152 55 375 c 5
 170 375 l 5
 170 193 256 49 430 49 c 4
 594 49 690 173 700 295 c 5
 755 295 l 5
EndSplineSet
EndChar

StartChar: D
Encoding: 68 68 15
Width: 825
Flags: HW
LayerCount: 2
Back
SplineSet
387.396484375 754 m 6
 479.396484375 754 560.396484375 716 630.396484375 640 c 4
 692.396484375 572.666992188 723.396484375 485 723.396484375 377 c 260
 723.396484375 268.333007812 692.23046875 180.666992188 629.896484375 114 c 4
 558.896484375 38 477.73046875 0 386.396484375 0 c 6
 41.396484375 0 l 5
 41.396484375 25 l 5
 151.396484375 25 l 5
 151.396484375 729 l 5
 41.396484375 729 l 5
 41.396484375 754 l 5
 387.396484375 754 l 6
245.396484375 729 m 5
 245.396484375 25 l 5
 356.396484375 25 l 6
 447.73046875 25 509.396484375 48 541.396484375 94 c 4
 582.73046875 154 603.396484375 248.333007812 603.396484375 377 c 260
 603.396484375 506.333007812 582.563476562 600.666992188 540.896484375 660 c 4
 508.563476562 706 446.73046875 729 355.396484375 729 c 6
 245.396484375 729 l 5
EndSplineSet
Fore
SplineSet
40 55 m 5
 150 55 l 5
 150 0 l 1
 40 0 l 1
 40 55 l 5
40 750 m 1
 150 750 l 1
 150 695 l 1
 40 695 l 1
 40 750 l 1
150 750 m 1
 245 750 l 1
 245 0 l 1
 150 0 l 1
 150 750 l 1
410 0 m 2
 245 0 l 1
 245 55 l 5
 410 55 l 6
 594 55 655 193 655 375 c 0
 655 557 584 695 410 695 c 2
 245 695 l 1
 245 750 l 1
 410 750 l 2
 633 750 770 588 770 375 c 0
 770 162 623 0 410 0 c 2
EndSplineSet
EndChar

StartChar: E
Encoding: 69 69 16
Width: 705
Flags: HW
LayerCount: 2
Back
SplineSet
422 216 m 5
 420.66015625 272.2734375 409.494140625 310.606445312 388.5 331 c 4
 366.5390625 352.333007812 319.373046875 363 247 363 c 5
 247 25 l 5
 453 25 l 6
 512.333984375 25 554 42.6669921875 578 78 c 4
 598.666992188 107.333007812 609.666992188 159.666992188 611 235 c 5
 646 235 l 5
 646 0 l 5
 35 0 l 5
 35 25 l 5
 153 25 l 5
 153 729 l 5
 35 729 l 5
 35 754 l 5
 616 754 l 5
 616 549 l 5
 581 549 l 5
 579.666992188 613 568.666992188 658.5 548 685.5 c 4
 526 714.5 484.333984375 729 423 729 c 6
 247 729 l 5
 247 388 l 5
 320.583984375 388 368.25 397.666992188 390 417 c 4
 411.333984375 435.962890625 422 472.295898438 422 526 c 5
 457 526 l 5
 457 216 l 5
 422 216 l 5
EndSplineSet
Fore
SplineSet
330 410 m 17
 417 410 450 458 450 525 c 9
 450 410 l 1
 330 410 l 17
450 245 m 17
 450 312 417 365 330 365 c 9
 450 365 l 1
 450 245 l 17
475 55 m 21
 612 55 645 98 645 255 c 13
 645 55 l 5
 475 55 l 21
450 245 m 1
 450 365 l 1
 495 365 l 1
 495 245 l 1
 450 245 l 1
450 410 m 1
 450 525 l 1
 495 525 l 1
 495 410 l 1
 450 410 l 1
645 55 m 1
 645 255 l 1
 695 255 l 1
 695 55 l 1
 645 55 l 1
635 515 m 1
 635 695 l 1
 685 695 l 1
 685 515 l 1
 635 515 l 1
245 55 m 1
 695 55 l 1
 695 0 l 1
 245 0 l 1
 245 55 l 1
245 750 m 1
 685 750 l 1
 685 695 l 1
 245 695 l 1
 245 750 l 1
245 410 m 1
 495 410 l 1
 495 365 l 1
 245 365 l 1
 245 410 l 1
40 55 m 1
 150 55 l 1
 150 0 l 1
 40 0 l 1
 40 55 l 1
40 750 m 1
 150 750 l 1
 150 695 l 1
 40 695 l 1
 40 750 l 1
150 750 m 1
 245 750 l 1
 245 0 l 1
 150 0 l 1
 150 750 l 1
635 515 m 17
 635 652 602 695 485 695 c 9
 635 695 l 1
 635 515 l 17
EndSplineSet
EndChar

StartChar: F
Encoding: 70 70 17
Width: 715
Flags: HW
LayerCount: 2
Back
SplineSet
38 754 m 5
 629 754 l 5
 629 509 l 5
 594 509 l 5
 592.666992188 589.666992188 581.833007812 644.333007812 561.5 673 c 4
 535.833007812 710.333007812 494 729 436 729 c 6
 250 729 l 5
 250 388 l 5
 323.333007812 388 371 397.666992188 393 417 c 4
 414.333007812 435.666992188 425 472 425 526 c 5
 460 526 l 5
 460 216 l 5
 425 216 l 5
 423.666992188 272 412.5 310.333007812 391.5 331 c 4
 369.833007812 352.333007812 322.666992188 363 250 363 c 5
 250 25 l 5
 360 25 l 5
 360 0 l 5
 38 0 l 5
 38 25 l 5
 156 25 l 5
 156 729 l 5
 38 729 l 5
 38 754 l 5
EndSplineSet
Fore
SplineSet
245 55 m 1
 365 55 l 1
 365 0 l 1
 245 0 l 1
 245 55 l 1
340 400 m 21
 427 400 460 438 460 505 c 13
 460 400 l 5
 340 400 l 21
460 235 m 21
 460 302 427 345 340 345 c 13
 460 345 l 5
 460 235 l 21
460 235 m 5
 460 345 l 5
 505 345 l 1
 505 235 l 1
 460 235 l 5
460 400 m 5
 460 505 l 5
 505 505 l 1
 505 400 l 1
 460 400 l 5
625 515 m 1
 625 695 l 1
 675 695 l 1
 675 515 l 1
 625 515 l 1
245 750 m 1
 675 750 l 1
 675 695 l 1
 245 695 l 1
 245 750 l 1
245 400 m 1
 505 400 l 1
 505 345 l 1
 245 345 l 1
 245 400 l 1
40 55 m 1
 150 55 l 1
 150 0 l 1
 40 0 l 1
 40 55 l 1
40 750 m 1
 150 750 l 1
 150 695 l 1
 40 695 l 1
 40 750 l 1
150 750 m 1
 245 750 l 1
 245 0 l 1
 150 0 l 1
 150 750 l 1
625 515 m 17
 625 652 592 695 475 695 c 9
 625 695 l 1
 625 515 l 17
EndSplineSet
EndChar

StartChar: G
Encoding: 71 71 18
Width: 875
Flags: HW
LayerCount: 2
Back
SplineSet
408 293 m 5
 698 293 l 5
 698 268 l 5
 640 268 l 5
 640 259 l 6
 640 171 615 104.666992188 565 60 c 4
 511.666992188 12 448.666992188 -12 376 -12 c 4
 283.333007812 -12 204.833007812 27.5 140.5 106.5 c 4
 86.8330078125 172.833007812 60 260.666992188 60 370 c 4
 60 485.333007812 90 577.5 150 646.5 c 4
 218.666992188 726.166992188 298.333007812 766 389 766 c 4
 421 766 450 761 476 751 c 132
 502 741 527.666992188 725.333007812 553 704 c 5
 597 754 l 5
 622 754 l 5
 622 528 l 5
 597 528 l 5
 591.666992188 556 584 582.5 574 607.5 c 132
 564 632.5 550.666992188 654.5 534 673.5 c 132
 517.333007812 692.5 497.166992188 707.666992188 473.5 719 c 132
 449.833007812 730.333007812 421.666992188 736 389 736 c 4
 319.666992188 736 270.833007812 711.833007812 242.5 663.5 c 4
 200.833007812 593.166992188 180 493.666992188 180 365 c 4
 180 245.666992188 198.666992188 153.5 236 88.5 c 4
 262 42.8330078125 307.666992188 20 373 20 c 4
 417 20 454.333007812 30.5 485 51.5 c 132
 515.666992188 72.5 531 102 531 140 c 6
 531 268 l 5
 408 268 l 5
 408 293 l 5
EndSplineSet
Fore
SplineSet
660 620 m 17
 700 750 l 9
 700 550 l 1
 660 620 l 17
700 495 m 1
 700 750 l 1
 745 750 l 1
 745 495 l 1
 700 495 l 1
735 495 m 1
 690 495 l 1
 680 597 626 712 442 712 c 0
 278 712 170 557 170 375 c 1
 55 375 l 1
 55 598 232 760 435 760 c 0
 628 760 735 628 735 495 c 1
755 215 m 1
 745 122 653 -10 430 -10 c 0
 207 -10 55 152 55 375 c 1
 170 375 l 1
 170 193 251 45 435 45 c 0
 579 45 640 123 650 185 c 1
 755 215 l 1
650 310 m 5
 755 305 l 5
 755 215 l 1
 650 185 l 1
 650 310 l 5
525 370 m 1
 855 370 l 1
 855 305 l 5
 525 305 l 5
 525 370 l 1
EndSplineSet
EndChar

StartChar: H
Encoding: 72 72 19
Width: 890
Flags: HW
LayerCount: 2
Back
SplineSet
40 754 m 5
 354 754 l 5
 354 729 l 5
 244 729 l 5
 244 400 l 5
 597 400 l 5
 597 729 l 5
 487 729 l 5
 487 754 l 5
 801 754 l 5
 801 729 l 5
 691 729 l 5
 691 25 l 5
 801 25 l 5
 801 0 l 5
 487 0 l 5
 487 25 l 5
 597 25 l 5
 597 375 l 5
 244 375 l 5
 244 25 l 5
 354 25 l 5
 354 0 l 5
 40 0 l 5
 40 25 l 5
 150 25 l 5
 150 729 l 5
 40 729 l 5
 40 754 l 5
EndSplineSet
Fore
SplineSet
245 415 m 5
 645 415 l 5
 645 360 l 1
 245 360 l 1
 245 415 l 5
525 55 m 1
 645 55 l 1
 645 0 l 1
 525 0 l 1
 525 55 l 1
740 55 m 1
 850 55 l 1
 850 0 l 1
 740 0 l 1
 740 55 l 1
40 55 m 1
 150 55 l 1
 150 0 l 1
 40 0 l 1
 40 55 l 1
245 55 m 1
 365 55 l 1
 365 0 l 1
 245 0 l 1
 245 55 l 1
525 750 m 1
 645 750 l 1
 645 695 l 1
 525 695 l 1
 525 750 l 1
740 750 m 1
 850 750 l 1
 850 695 l 1
 740 695 l 1
 740 750 l 1
40 750 m 1
 150 750 l 1
 150 695 l 1
 40 695 l 1
 40 750 l 1
245 750 m 1
 365 750 l 1
 365 695 l 1
 245 695 l 1
 245 750 l 1
645 750 m 1
 740 750 l 1
 740 0 l 1
 645 0 l 1
 645 750 l 1
150 750 m 1
 245 750 l 1
 245 0 l 1
 150 0 l 1
 150 750 l 1
EndSplineSet
EndChar

StartChar: I
Encoding: 73 73 20
Width: 405
Flags: HW
LayerCount: 2
Back
SplineSet
40 754 m 5
 354 754 l 5
 354 729 l 5
 244 729 l 5
 244 25 l 5
 354 25 l 5
 354 0 l 5
 40 0 l 5
 40 25 l 5
 150 25 l 5
 150 729 l 5
 40 729 l 5
 40 754 l 5
EndSplineSet
Fore
SplineSet
40 45 m 1
 150 45 l 1
 150 0 l 1
 40 0 l 1
 40 45 l 1
245 45 m 1
 365 45 l 1
 365 0 l 1
 245 0 l 1
 245 45 l 1
40 750 m 1
 150 750 l 1
 150 705 l 1
 40 705 l 1
 40 750 l 1
245 750 m 1
 365 750 l 1
 365 705 l 1
 245 705 l 1
 245 750 l 1
150 750 m 5
 245 750 l 5
 245 0 l 5
 150 0 l 5
 150 750 l 5
EndSplineSet
EndChar

StartChar: J
Encoding: 74 74 21
Width: 596
Flags: HW
LayerCount: 2
Back
SplineSet
262 754 m 5
 576 754 l 5
 576 729 l 5
 486 729 l 5
 486 125 l 6
 486 44.3330078125 468.5 -14.3330078125 433.5 -51 c 4
 397.833007812 -89 359.666992188 -108 319 -108 c 4
 272.333007812 -108 235 -93.8330078125 207 -65.5 c 4
 187 -45.1669921875 177 -25 177 -5 c 4
 177 17 183 33.3330078125 195 44 c 132
 207 54.6669921875 220.333007812 60 235 60 c 4
 250.333007812 60 263 54.8330078125 273 44.5 c 132
 283 34.1669921875 288 21.6669921875 288 7 c 4
 288 -7 285 -17.6669921875 279 -25 c 132
 273 -32.3330078125 270 -40.8330078125 270 -50.5 c 132
 270 -60.1669921875 274 -66.6669921875 282 -70 c 132
 290 -73.3330078125 297.333007812 -75 304 -75 c 4
 334 -75 356.166992188 -58.5 370.5 -25.5 c 4
 384.833007812 8.1669921875 392 58.3330078125 392 125 c 6
 392 729 l 5
 262 729 l 5
 262 754 l 5
EndSplineSet
Fore
SplineSet
111 135 m 1
 111 135 10 115 10 145 c 0
 10 217 54 245 94 245 c 0
 129 245 161 220 161 184 c 1
 141 160 l 1
 111 135 l 1
114 90 m 1
 19 119 l 1
 29 180 l 1
 161 184 l 1
 161 119 114 132 114 90 c 1
10 145 m 1
 114 90 l 1
 114 73 124 35 206 35 c 4
 297 35 351 100 351 240 c 1
 446 270 l 1
 446 110 367 -10 206 -10 c 0
 69 -10 10 75 10 145 c 1
241 750 m 1
 351 750 l 1
 351 705 l 1
 241 705 l 1
 241 750 l 1
446 750 m 1
 566 750 l 1
 566 705 l 1
 446 705 l 1
 446 750 l 1
351 750 m 1
 446 750 l 1
 446 270 l 1
 351 240 l 1
 351 750 l 1
EndSplineSet
EndChar

StartChar: K
Encoding: 75 75 22
Width: 870
Flags: HW
LayerCount: 2
Back
SplineSet
444 25 m 5
 554 25 l 5
 277 381 l 5
 217 312 l 5
 217 25 l 5
 317 25 l 5
 317 0 l 5
 13 0 l 5
 13 25 l 5
 123 25 l 5
 123 729 l 5
 13 729 l 5
 13 754 l 5
 317 754 l 5
 317 729 l 5
 217 729 l 5
 217 362 l 5
 543 729 l 5
 418 729 l 5
 418 754 l 5
 701 754 l 5
 701 729 l 5
 586 729 l 5
 337 449 l 5
 675 25 l 5
 744 25 l 5
 744 0 l 5
 444 0 l 5
 444 25 l 5
EndSplineSet
Fore
SplineSet
40 55 m 5
 150 55 l 5
 150 0 l 1
 40 0 l 1
 40 55 l 5
245 55 m 5
 365 55 l 5
 365 0 l 1
 245 0 l 1
 245 55 l 5
40 750 m 1
 150 750 l 1
 150 695 l 1
 40 695 l 1
 40 750 l 1
245 750 m 1
 365 750 l 1
 365 695 l 1
 245 695 l 1
 245 750 l 1
150 750 m 1
 245 750 l 1
 245 0 l 1
 150 0 l 1
 150 750 l 1
230 217 m 1
 157 217 l 1
 671 748 l 1
 746 748 l 1
 230 217 l 1
545 55 m 5
 875 55 l 5
 875 0 l 1
 545 0 l 1
 545 55 l 5
810 695 m 1
 510 695 l 1
 510 750 l 1
 810 750 l 1
 810 695 l 1
810 0 m 1
 687 0 l 1
 362 420 l 1
 440 470 l 1
 810 0 l 1
EndSplineSet
EndChar

StartChar: L
Encoding: 76 76 23
Width: 730
Flags: HW
LayerCount: 2
Back
SplineSet
33 754 m 5
 366 754 l 5
 366 729 l 5
 245 729 l 5
 245 25 l 5
 436 25 l 6
 494.666992188 25 536.5 42.6669921875 561.5 78 c 4
 581.833007812 106 592.666992188 158.333007812 594 235 c 5
 629 235 l 5
 629 0 l 5
 33 0 l 5
 33 25 l 5
 151 25 l 5
 151 729 l 5
 33 729 l 5
 33 754 l 5
EndSplineSet
Fore
SplineSet
245 750 m 1
 355 750 l 1
 355 695 l 1
 245 695 l 1
 245 750 l 1
470 55 m 21
 607 55 640 118 640 255 c 9
 640 55 l 1
 470 55 l 21
640 55 m 1
 640 255 l 1
 690 255 l 1
 690 55 l 1
 640 55 l 1
245 55 m 1
 690 55 l 1
 690 0 l 1
 245 0 l 1
 245 55 l 1
40 55 m 1
 150 55 l 1
 150 0 l 1
 40 0 l 1
 40 55 l 1
40 750 m 1
 150 750 l 1
 150 695 l 1
 40 695 l 1
 40 750 l 1
150 750 m 1
 245 750 l 1
 245 0 l 1
 150 0 l 1
 150 750 l 1
EndSplineSet
EndChar

StartChar: M
Encoding: 77 77 24
Width: 1035
Flags: HW
LayerCount: 2
Back
SplineSet
467 143 m 5
 679 754 l 5
 897 754 l 5
 897 729 l 5
 787 729 l 5
 787 25 l 5
 897 25 l 5
 897 0 l 5
 583 0 l 5
 583 25 l 5
 693 25 l 5
 693 665 l 5
 689 665 l 5
 455 -9 l 5
 419 -9 l 5
 180 665 l 5
 176 665 l 5
 176 25 l 5
 286 25 l 5
 286 0 l 5
 27 0 l 5
 27 25 l 5
 137 25 l 5
 137 729 l 5
 27 729 l 5
 27 754 l 5
 253 754 l 5
 467 143 l 5
EndSplineSet
Fore
SplineSet
549 79 m 1
 476 -10 l 1
 210 750 l 1
 315 750 l 1
 549 79 l 1
540 -10 m 1
 476 -10 l 1
 726 750 l 1
 795 750 l 1
 540 -10 l 1
675 55 m 1
 1000 55 l 1
 1000 0 l 1
 675 0 l 1
 675 55 l 1
35 55 m 1
 330 55 l 1
 330 0 l 1
 35 0 l 1
 35 55 l 1
860 750 m 1
 970 750 l 1
 970 695 l 1
 860 695 l 1
 860 750 l 1
65 750 m 1
 175 750 l 1
 175 695 l 1
 65 695 l 1
 65 750 l 1
765 750 m 1
 860 750 l 1
 890 0 l 1
 795 0 l 1
 765 750 l 1
175 750 m 1
 240 750 l 1
 210 0 l 1
 145 0 l 1
 175 750 l 1
EndSplineSet
EndChar

StartChar: N
Encoding: 78 78 25
Width: 885
Flags: HW
LayerCount: 2
Back
SplineSet
514 754 m 5
 753 754 l 5
 753 729 l 5
 653 729 l 5
 653 -12 l 5
 622 -12 l 5
 186 683 l 5
 182 683 l 5
 182 25 l 5
 292 25 l 5
 292 0 l 5
 33 0 l 5
 33 25 l 5
 143 25 l 5
 143 729 l 5
 33 729 l 5
 33 754 l 5
 254 754 l 5
 614 179 l 5
 614 729 l 5
 514 729 l 5
 514 754 l 5
EndSplineSet
Fore
SplineSet
750 -10 m 1
 715 -10 l 1
 715 85 l 1
 750 85 l 1
 750 -10 l 1
575 750 m 1
 685 750 l 1
 685 695 l 1
 575 695 l 1
 575 750 l 1
738 115 m 1
 715 -10 l 1
 130 750 l 1
 255 750 l 5
 738 115 l 1
40 55 m 1
 145 55 l 1
 145 0 l 1
 40 0 l 1
 40 55 l 1
210 55 m 1
 325 55 l 1
 325 0 l 1
 210 0 l 1
 210 55 l 1
750 750 m 1
 855 750 l 1
 855 695 l 1
 750 695 l 1
 750 750 l 1
40 750 m 1
 145 750 l 1
 145 695 l 1
 40 695 l 1
 40 750 l 1
685 750 m 1
 750 750 l 1
 750 -10 l 1
 685 50 l 1
 685 750 l 1
145 750 m 1
 210 750 l 1
 210 0 l 1
 145 0 l 1
 145 750 l 1
EndSplineSet
EndChar

StartChar: O
Encoding: 79 79 26
Width: 830
Flags: HW
LayerCount: 2
Back
SplineSet
561 -12 m 256
 471.666992188 -12 393 26.8330078125 325 104.5 c 0
 264.333007812 173.5 234 264.333007812 234 377 c 256
 234 489.666992188 264.333007812 580.5 325 649.5 c 0
 393 727.166992188 471.666992188 766 561 766 c 256
 650.333007812 766 729 727.166992188 797 649.5 c 0
 857.666992188 580.5 888 489.666992188 888 377 c 256
 888 264.333007812 857.666992188 173.5 797 104.5 c 0
 729 26.8330078125 650.333007812 -12 561 -12 c 256
561 18 m 256
 637 18 688.5 42.1669921875 715.5 90.5 c 0
 750.5 153.5 768 249.333007812 768 378 c 256
 768 506 750.5 601.5 715.5 664.5 c 0
 689.166992188 712.166992188 637.666992188 736 561 736 c 256
 485 736 433.5 711.833007812 406.5 663.5 c 0
 371.5 600.5 354 505 354 377 c 256
 354 249 371.5 153.5 406.5 90.5 c 0
 433.5 42.1669921875 485 18 561 18 c 256
EndSplineSet
Fore
SplineSet
170 375 m 4
 170 193 241 40 415 40 c 4
 599 40 660 193 660 375 c 4
 660 557 589 710 415 710 c 4
 241 710 170 557 170 375 c 4
55 375 m 4
 55 588 192 760 415 760 c 4
 638 760 775 588 775 375 c 4
 775 162 628 -10 415 -10 c 4
 192 -10 55 162 55 375 c 4
EndSplineSet
EndChar

StartChar: P
Encoding: 80 80 27
Width: 695
Flags: HW
LayerCount: 2
Back
SplineSet
31 25 m 5
 141 25 l 5
 141 729 l 5
 31 729 l 5
 31 754 l 5
 397 754 l 6
 463 754 520.166992188 735 568.5 697 c 4
 610.833007812 663.666992188 632 615.333007812 632 552 c 4
 632 485.333007812 604.833007812 434.666992188 550.5 400 c 4
 488.833007812 361.333007812 407.666992188 342 307 342 c 6
 235 342 l 5
 235 25 l 5
 365 25 l 5
 365 0 l 5
 31 0 l 5
 31 25 l 5
235 729 m 5
 235 372 l 5
 307 372 l 6
 384.333007812 372 436.333007812 383.833007812 463 407.5 c 4
 499 439.833007812 517 490 517 558 c 4
 517 618 501.833007812 664.166992188 471.5 696.5 c 4
 451.166992188 718.166992188 413 729 357 729 c 6
 235 729 l 5
EndSplineSet
Fore
SplineSet
245 55 m 5
 355 55 l 5
 355 0 l 1
 245 0 l 1
 245 55 l 5
395 385 m 1
 491 385 545 451 545 540 c 0
 545 629 491 695 395 695 c 1
 395 750 l 1
 576 750 655 670 655 540 c 0
 655 410 576 330 395 330 c 1
 395 385 l 1
150 750 m 1
 245 750 l 1
 245 0 l 1
 150 0 l 1
 150 750 l 1
40 750 m 1
 150 750 l 1
 150 695 l 1
 40 695 l 1
 40 750 l 1
40 55 m 5
 150 55 l 5
 150 0 l 1
 40 0 l 1
 40 55 l 5
245 385 m 1
 395 385 l 1
 395 330 l 1
 245 330 l 1
 245 385 l 1
245 750 m 1
 395 750 l 1
 395 695 l 1
 245 695 l 1
 245 750 l 1
EndSplineSet
EndChar

StartChar: Q
Encoding: 81 81 28
Width: 830
Flags: HW
LayerCount: 2
Back
SplineSet
680 -256 m 5
 549.333007812 -256 456.833007812 -237.666992188 402.5 -201 c 4
 353.5 -168.333007812 328.333007812 -105.333007812 327 -12 c 5
 246.333007812 7.3330078125 179.166992188 56.5 125.5 135.5 c 4
 81.8330078125 199.833007812 60 280.333007812 60 377 c 4
 60 489 90.1669921875 579.833007812 150.5 649.5 c 4
 218.166992188 727.166992188 296.666992188 766 386 766 c 260
 475.333007812 766 554 727.166992188 622 649.5 c 4
 682.666992188 580.5 713 489.666992188 713 377 c 4
 713 280.333007812 691.166992188 200.166992188 647.5 136.5 c 4
 591.833007812 56.8330078125 525 7.6669921875 447 -11 c 5
 445.666992188 -19.6669921875 445 -32.3330078125 445 -49 c 4
 445 -113 467.166992188 -160.833007812 511.5 -192.5 c 4
 543.166992188 -214.833007812 599.333007812 -226 680 -226 c 5
 680 -256 l 5
386 18 m 260
 462 18 513.5 42.1669921875 540.5 90.5 c 4
 575.5 153.5 593 249.333007812 593 378 c 260
 593 504.666992188 575.166992188 600.166992188 539.5 664.5 c 4
 512.5 712.166992188 461 736 385 736 c 260
 308.333007812 736 257.166992188 711.833007812 231.5 663.5 c 4
 197.166992188 598.5 180 503 180 377 c 260
 180 249.666992188 197.333007812 154.166992188 232 90.5 c 4
 258 42.1669921875 309.333007812 18 386 18 c 260
EndSplineSet
Fore
SplineSet
304 65 m 1
 249 100 l 1
 209 121 223 303 362 303 c 0
 537 303 581 -37 668 -37 c 0
 730 -37 755 26 755 82 c 1
 805 82 l 1
 805 82 l 1
 804 -32 754 -125 660 -125 c 0
 491 -125 536 210 364 210 c 0
 284 210 254 113 304 65 c 1
170 375 m 0
 170 193 241 40 415 40 c 0
 599 40 660 193 660 375 c 0
 660 557 589 710 415 710 c 0
 241 710 170 557 170 375 c 0
55 375 m 0
 55 588 192 760 415 760 c 0
 638 760 775 588 775 375 c 0
 775 162 628 -10 415 -10 c 0
 192 -10 55 162 55 375 c 0
EndSplineSet
EndChar

StartChar: R
Encoding: 82 82 29
Width: 795
Flags: HW
LayerCount: 2
Back
SplineSet
33 754 m 5
 409 754 l 6
 469.666992188 754 521.666992188 739 565 709 c 4
 604.333007812 682.333007812 624 640 624 582 c 4
 624 530 609.666992188 491 581 465 c 4
 543.666992188 431.666992188 496.666992188 409.333007812 440 398 c 5
 440 394 l 5
 476 384.666992188 512.333007812 361 549 323 c 4
 579 291 594 248.666992188 594 196 c 6
 594 144 l 6
 594 98 599 66.6669921875 609 50 c 132
 619 33.3330078125 637 25 663 25 c 6
 701 25 l 5
 701 0 l 5
 624 0 l 6
 587.333007812 0 556 10.6669921875 530 32 c 4
 504.26171875 53.119140625 490.26171875 93.4521484375 488 153 c 6
 485 232 l 6
 483 284.666992188 467.666992188 323.666992188 439 349 c 132
 410.333007812 374.333007812 373 387 327 387 c 6
 237 387 l 5
 237 25 l 5
 367 25 l 5
 367 0 l 5
 33 0 l 5
 33 25 l 5
 143 25 l 5
 143 729 l 5
 33 729 l 5
 33 754 l 5
237 729 m 5
 237 417 l 5
 319 417 l 6
 387.666992188 417 434.333007812 427.833007812 459 449.5 c 4
 492.333007812 479.166992188 509 524.333007812 509 585 c 4
 509 636.333007812 495.666992188 675.5 469 702.5 c 4
 451.666992188 720.166992188 418.333007812 729 369 729 c 6
 237 729 l 5
EndSplineSet
Fore
SplineSet
435 405 m 1
 511 405 585 451 585 550 c 4
 585 649 511 695 435 695 c 1
 435 750 l 1
 616 750 685 660 685 550 c 4
 685 440 626 364 435 364 c 1
 435 405 l 1
245 750 m 1
 435 750 l 1
 435 695 l 1
 245 695 l 1
 245 750 l 1
245 405 m 1
 455 405 l 1
 455 345 l 1
 245 345 l 1
 245 405 l 1
40 55 m 1
 150 55 l 1
 150 0 l 1
 40 0 l 1
 40 55 l 1
40 750 m 1
 150 750 l 1
 150 695 l 1
 40 695 l 1
 40 750 l 1
150 750 m 1
 245 750 l 1
 245 0 l 1
 150 0 l 1
 150 750 l 1
245 55 m 1
 355 55 l 1
 355 0 l 1
 245 0 l 1
 245 55 l 1
800 84 m 1
 785 29 741 -10 675 -10 c 0
 442.03125 -10 661.256835938 345 405 345 c 1
 425 381 l 1
 768.294921875 381 568.228515625 57 701 57 c 0
 722 57 755 66 770 101 c 1
 800 84 l 1
EndSplineSet
EndChar

StartChar: S
Encoding: 83 83 30
Width: 660
Flags: HW
LayerCount: 2
Back
SplineSet
99 0 m 5
 74 0 l 5
 74 210 l 5
 100 210 l 5
 106 186 114.333007812 162.5 125 139.5 c 132
 135.666992188 116.5 149.5 96.1669921875 166.5 78.5 c 132
 183.5 60.8330078125 203.833007812 46.5 227.5 35.5 c 132
 251.166992188 24.5 279 19 311 19 c 4
 339 19 363.666992188 23.1669921875 385 31.5 c 132
 406.333007812 39.8330078125 424 50.8330078125 438 64.5 c 132
 452 78.1669921875 462.5 93.8330078125 469.5 111.5 c 132
 476.5 129.166992188 480 153.666992188 480 185 c 4
 480 225 462.333007812 257.5 427 282.5 c 4
 397 303.5 350.333007812 321.333007812 287 336 c 4
 214.333007812 353.333007812 161.666992188 380.666992188 129 418 c 132
 96.3330078125 455.333007812 80 497 80 543 c 4
 80 579 86.3330078125 611 99 639 c 132
 111.666992188 667 128.5 690.333007812 149.5 709 c 132
 170.5 727.666992188 194.666992188 741.833007812 222 751.5 c 132
 249.333007812 761.166992188 277.666992188 766 307 766 c 4
 339 766 366.833007812 761.5 390.5 752.5 c 132
 414.166992188 743.5 438.333007812 729.333007812 463 710 c 5
 489 754 l 5
 514 754 l 5
 514 550 l 5
 489 549 l 5
 457.666992188 673.666992188 395.666992188 736 303 736 c 4
 282.333007812 736 262.666992188 732.833007812 244 726.5 c 132
 225.333007812 720.166992188 209 711.166992188 195 699.5 c 132
 181 687.833007812 169.833007812 674.166992188 161.5 658.5 c 132
 153.166992188 642.833007812 149 619.333007812 149 588 c 4
 149 550.666992188 165.833007812 522 199.5 502 c 4
 221.166992188 489.333007812 263.666992188 474.333007812 327 457 c 4
 401.666992188 437 455.666992188 408.833007812 489 372.5 c 4
 525.666992188 332.166992188 544 285.333007812 544 232 c 4
 544 156 523.333007812 96.3330078125 482 53 c 132
 440.666992188 9.6669921875 381 -12 303 -12 c 4
 267 -12 236.166992188 -7 210.5 3 c 132
 184.833007812 13 159.666992188 27.6669921875 135 47 c 5
 99 0 l 5
EndSplineSet
Fore
SplineSet
147 103 m 21
 105 -5 l 13
 105 165 l 5
 147 103 l 21
105 255 m 5
 105 -5 l 5
 50 -5 l 5
 50 255 l 5
 105 255 l 5
95 160 m 5
 105 255 l 5
 105 146 186 36 330 36 c 4
 466 36 520 116 520 185 c 5
 610 210 l 5
 610 70 511 -15 340 -15 c 4
 204 -15 95 80 95 160 c 5
80 555 m 5
 170 585 l 5
 170 375 610 530 610 210 c 5
 520 185 l 5
 520 415 80 265 80 555 c 5
483 652 m 21
 525 750 l 13
 525 590 l 5
 483 652 l 21
525 505 m 5
 525 750 l 5
 580 750 l 5
 580 505 l 5
 525 505 l 5
535 595 m 5
 525 505 l 5
 525 634 444 709 330 709 c 4
 214 709 170 654 170 585 c 5
 80 555 l 5
 80 695 189 760 320 760 c 4
 436 760 535 685 535 595 c 5
EndSplineSet
EndChar

StartChar: T
Encoding: 84 84 31
Width: 715
Flags: HW
LayerCount: 2
Back
SplineSet
175 25 m 5
 305 25 l 5
 305 729 l 5
 214 729 l 5
 158 725.666992188 118.166992188 706 94.5 670 c 4
 75.5 641.333007812 65.3330078125 587.666992188 64 509 c 5
 29 509 l 5
 29 754 l 5
 667 754 l 5
 667 509 l 5
 632 509 l 5
 630.666992188 589 619.833007812 643.666992188 599.5 673 c 4
 573.833007812 710.333007812 532 729 474 729 c 6
 399 729 l 5
 399 25 l 5
 529 25 l 5
 529 0 l 5
 175 0 l 5
 175 25 l 5
EndSplineSet
Fore
SplineSet
475 695 m 9
 645 695 l 5
 645 495 l 21
 645 652 612 695 475 695 c 9
645 695 m 5
 695 695 l 1
 695 495 l 1
 645 495 l 5
 645 695 l 5
240 695 m 17
 103 695 70 652 70 495 c 9
 70 695 l 1
 240 695 l 17
70 695 m 1
 70 495 l 1
 20 495 l 1
 20 695 l 1
 70 695 l 1
310 750 m 1
 310 695 l 1
 20 695 l 1
 20 750 l 1
 310 750 l 1
405 55 m 1
 535 55 l 1
 535 0 l 1
 405 0 l 1
 405 55 l 1
405 750 m 1
 695 750 l 1
 695 695 l 1
 405 695 l 1
 405 750 l 1
180 55 m 1
 310 55 l 1
 310 0 l 1
 180 0 l 1
 180 55 l 1
310 750 m 1
 405 750 l 1
 405 0 l 1
 310 0 l 1
 310 750 l 1
EndSplineSet
EndChar

StartChar: U
Encoding: 85 85 32
Width: 820
Flags: HW
LayerCount: 2
Back
SplineSet
1 754 m 5
 307 754 l 5
 307 729 l 5
 212 729 l 5
 212 196 l 6
 212 128.666992188 226.333007812 84.3330078125 255 63 c 4
 290.333007812 36.3330078125 336.333007812 23 393 23 c 4
 447 23 489.5 37.1669921875 520.5 65.5 c 132
 551.5 93.8330078125 567 137.333007812 567 196 c 6
 567 729 l 5
 462 729 l 5
 462 754 l 5
 705 754 l 5
 705 729 l 5
 600 729 l 5
 600 196 l 6
 600 124 580.166992188 71.3330078125 540.5 38 c 132
 500.833007812 4.6669921875 441.333007812 -12 362 -12 c 4
 286 -12 225.166992188 4.8330078125 179.5 38.5 c 4
 138.5 68.8330078125 118 121 118 195 c 6
 118 729 l 5
 1 729 l 5
 1 754 l 5
EndSplineSet
Fore
SplineSet
125 750 m 1
 220 750 l 1
 220 310 l 1
 125 300 l 1
 125 750 l 1
635 750 m 1
 695 750 l 1
 695 300 l 1
 635 300 l 1
 635 750 l 1
220 750 m 1
 340 750 l 1
 340 695 l 1
 220 695 l 1
 220 750 l 1
15 750 m 1
 125 750 l 1
 125 695 l 1
 15 695 l 1
 15 750 l 1
695 750 m 1
 805 750 l 1
 805 695 l 1
 695 695 l 1
 695 750 l 1
510 750 m 1
 635 750 l 1
 635 695 l 1
 510 695 l 1
 510 750 l 1
635 300 m 1
 695 300 l 1
 695 85 613 -15 415 -15 c 0
 202 -15 125 117 125 300 c 1
 220 310 l 1
 220 158 266 45 430 45 c 4
 584 45 635 118 635 300 c 1
EndSplineSet
EndChar

StartChar: V
Encoding: 86 86 33
Width: 860
Flags: HW
LayerCount: 2
Back
SplineSet
701 729 m 5
 607 729 l 5
 355 -12 l 5
 325 -12 l 5
 72 729 l 5
 -24 729 l 5
 -24 754 l 5
 293 754 l 5
 293 729 l 5
 176 729 l 5
 374 134 l 5
 574 729 l 5
 457 729 l 5
 457 754 l 5
 701 754 l 5
 701 729 l 5
EndSplineSet
Fore
SplineSet
330 695 m 1
 0 695 l 1
 0 750 l 1
 330 750 l 1
 330 695 l 1
860 695 m 1
 580 695 l 1
 580 750 l 1
 860 750 l 1
 860 695 l 1
480 60 m 1
 410 -10 l 1
 90 750 l 1
 200 750 l 1
 480 60 l 1
465 -10 m 1
 410 -10 l 1
 725 750 l 5
 780 750 l 1
 465 -10 l 1
EndSplineSet
EndChar

StartChar: W
Encoding: 87 87 34
Width: 1190
Flags: HW
LayerCount: 2
Back
SplineSet
335 124 m 5
 424 381 l 5
 305 729 l 5
 129 729 l 5
 335 124 l 5
478 495 m 5
 566 729 l 5
 399 729 l 5
 478 495 l 5
917 729 m 5
 845 729 l 5
 588 -12 l 5
 558 -12 l 5
 440 333 l 5
 318 -12 l 5
 288 -12 l 5
 35 729 l 5
 -41 729 l 5
 -41 754 l 5
 658 754 l 5
 658 729 l 5
 601 729 l 5
 495 450 l 5
 603 129 l 5
 812 729 l 5
 709 729 l 5
 709 754 l 5
 917 754 l 5
 917 729 l 5
EndSplineSet
Fore
SplineSet
1185 695 m 5
 905 695 l 5
 905 750 l 5
 1185 750 l 5
 1185 695 l 5
851 55 m 1
 781 -10 l 1
 545 750 l 5
 645 750 l 5
 851 55 l 1
840 -10 m 1
 781 -10 l 1
 1035 750 l 5
 1093 750 l 5
 840 -10 l 1
335 695 m 5
 5 695 l 5
 5 750 l 5
 335 750 l 5
 335 695 l 5
755 695 m 5
 475 695 l 5
 475 750 l 5
 755 750 l 5
 755 695 l 5
430 55 m 1
 360 -10 l 1
 95 750 l 5
 195 750 l 5
 430 55 l 1
420 -10 m 1
 360 -10 l 1
 603 652 l 5
 661 652 l 5
 420 -10 l 1
EndSplineSet
EndChar

StartChar: X
Encoding: 88 88 35
Width: 870
Flags: HW
LayerCount: 2
Back
SplineSet
-37 25 m 5
 58 25 l 5
 288 382 l 5
 88 729 l 5
 -22 729 l 5
 -22 754 l 5
 322 754 l 5
 322 729 l 5
 193 729 l 5
 346 457 l 5
 529 729 l 5
 410 729 l 5
 410 754 l 5
 659 754 l 5
 659 729 l 5
 563 729 l 5
 367 430 l 5
 583 25 l 5
 681 25 l 5
 681 0 l 5
 339 0 l 5
 339 25 l 5
 483 25 l 5
 305 348 l 5
 95 25 l 5
 225 25 l 5
 225 0 l 5
 -37 0 l 5
 -37 25 l 5
EndSplineSet
Fore
SplineSet
465 377 m 1
 397 377 l 1
 686 748 l 1
 751 748 l 1
 465 377 l 1
154 0 m 1
 86 0 l 1
 417 417 l 1
 482 417 l 1
 154 0 l 1
530 55 m 5
 860 55 l 5
 860 0 l 1
 530 0 l 1
 530 55 l 5
10 55 m 5
 310 55 l 5
 310 0 l 1
 10 0 l 1
 10 55 l 5
375 695 m 1
 45 695 l 1
 45 750 l 1
 375 750 l 1
 375 695 l 1
825 695 m 1
 525 695 l 1
 525 750 l 1
 825 750 l 1
 825 695 l 1
796 0 m 1
 676 0 l 1
 105 750 l 1
 225 750 l 1
 796 0 l 1
EndSplineSet
EndChar

StartChar: Y
Encoding: 89 89 36
Width: 785
Flags: HW
LayerCount: 2
Back
SplineSet
96 25 m 5
 216 25 l 5
 216 343 l 5
 -8 729 l 5
 -97 729 l 5
 -97 754 l 5
 210 754 l 5
 210 729 l 5
 107 729 l 5
 296.451171875 404.651367188 l 5
 474 729 l 5
 338 729 l 5
 338 754 l 5
 603 754 l 5
 603 729 l 5
 507 729 l 5
 310 362 l 5
 310 25 l 5
 430 25 l 5
 430 0 l 5
 96 0 l 5
 96 25 l 5
EndSplineSet
Fore
SplineSet
245 55 m 5
 355 55 l 5
 355 0 l 5
 245 0 l 5
 245 55 l 5
450 55 m 5
 570 55 l 5
 570 0 l 5
 450 0 l 5
 450 55 l 5
355 350 m 5
 450 350 l 5
 450 0 l 5
 355 0 l 5
 355 350 l 5
440 317 m 5
 371 317 l 5
 651 748 l 1
 721 748 l 1
 440 317 l 5
330 695 m 1
 0 695 l 1
 0 750 l 1
 330 750 l 1
 330 695 l 1
785 695 m 1
 485 695 l 1
 485 750 l 1
 785 750 l 1
 785 695 l 1
449 334 m 5
 361 300 l 5
 60 750 l 1
 170 750 l 1
 449 334 l 5
EndSplineSet
EndChar

StartChar: Z
Encoding: 90 90 37
Width: 735
Flags: HW
LayerCount: 2
Back
SplineSet
623 719 m 5
 158 29 l 5
 158 25 l 5
 430 25 l 6
 488 25 529.833007812 43.6669921875 555.5 81 c 4
 575.833007812 110.333007812 586.666992188 165 588 245 c 5
 623 245 l 5
 623 0 l 5
 43 0 l 5
 43 32 l 5
 511 725 l 5
 511 729 l 5
 276 729 l 6
 216.666992188 729 174.833007812 714.5 150.5 685.5 c 4
 130.166992188 661.833007812 119.333007812 616.333007812 118 549 c 5
 83 549 l 5
 83 754 l 5
 623 754 l 5
 623 719 l 5
EndSplineSet
Fore
SplineSet
295 695 m 17
 158 695 125 652 125 515 c 13
 125 695 l 1
 295 695 l 17
475 55 m 17
 612 55 645 98 645 255 c 9
 645 55 l 1
 475 55 l 17
530 695 m 1
 655 695 l 1
 160 55 l 1
 35 55 l 1
 530 695 l 1
645 55 m 1
 645 255 l 1
 695 255 l 1
 695 55 l 1
 645 55 l 1
125 515 m 5
 75 515 l 5
 75 695 l 1
 125 695 l 1
 125 515 l 5
35 55 m 1
 695 55 l 1
 695 0 l 1
 35 0 l 1
 35 55 l 1
655 750 m 1
 655 695 l 1
 75 695 l 1
 75 750 l 1
 655 750 l 1
EndSplineSet
EndChar

StartChar: a
Encoding: 97 97 38
Width: 577
VWidth: 1155
Flags: HW
LayerCount: 2
Back
SplineSet
217 43 m 132
 245 43 269.333007812 52.3330078125 290 71 c 132
 310.666992188 89.6669921875 321 114.666992188 321 146 c 6
 321 227 l 5
 193.666992188 227 130 191 130 119 c 4
 130 89.6669921875 137.666992188 69.3330078125 153 58 c 4
 167.666992188 48 189 43 217 43 c 132
181 -12 m 4
 143 -12 110.666992188 -1 84 21 c 132
 57.3330078125 43 44 71 44 105 c 4
 44 157 67.8330078125 195.166992188 115.5 219.5 c 4
 159.166992188 241.833007812 227.666992188 253 321 253 c 5
 321 375 l 6
 321 392.333007812 314.166992188 406 300.5 416 c 132
 286.833007812 426 265 431 235 431 c 4
 208.333007812 431 186.5 427.666992188 169.5 421 c 132
 152.5 414.333007812 144 405.666992188 144 395 c 4
 144 387.666992188 146.333007812 381.5 151 376.5 c 132
 155.666992188 371.5 158 363.333007812 158 352 c 4
 158 338 153.5 326.5 144.5 317.5 c 132
 135.5 308.5 124 304 110 304 c 132
 96 304 85 308.666992188 77 318 c 132
 69 327.333007812 65 339.666992188 65 355 c 4
 65 369.666992188 69.6669921875 383.666992188 79 397 c 132
 88.3330078125 410.333007812 101.166992188 421.666992188 117.5 431 c 132
 133.833007812 440.333007812 152.833007812 447.833007812 174.5 453.5 c 132
 196.166992188 459.166992188 223 462 255 462 c 4
 297 462 332.666992188 452.5 362 433.5 c 132
 391.333007812 414.5 406 389.666992188 406 359 c 6
 406 55 l 6
 406 48.3330078125 408.166992188 42.8330078125 412.5 38.5 c 132
 416.833007812 34.1669921875 422 32 428 32 c 4
 438.666992188 32 455.666992188 45 479 71 c 5
 493 55 l 5
 477 31.6669921875 460.666992188 14.6669921875 444 4 c 132
 427.333007812 -6.6669921875 410.333007812 -12 393 -12 c 4
 369.666992188 -12 353 -5.5 343 7.5 c 132
 333 20.5 327 38.6669921875 325 62 c 5
 310.333007812 38 292.5 20.3330078125 271.5 9 c 4
 244.5 -5 214.333007812 -12 181 -12 c 4
EndSplineSet
Fore
SplineSet
299 299 m 1
 299 261 l 1
 183 261 142 215 142 138 c 0
 142 71 190 46 240 46 c 0
 308 46 361 100 361 191 c 1
 385 179 l 1
 385 55 306 -10 195 -10 c 0
 106 -10 40 39 40 123 c 0
 40 217 127 299 299 299 c 1
451 367 m 1
 451 71 l 1
 361 73 l 1
 361 377 l 1
 451 367 l 1
70 403 m 1
 70 480 162 530 283 530 c 0
 423 530 451 448 451 367 c 1
 361 367 l 1
 361 434 338 484 258 484 c 4
 204 484 156 465 156 445 c 1
 70 403 l 1
299 299 m 1
 413 299 l 1
 413 261 l 1
 299 261 l 1
 299 299 l 1
561 63 m 1
 538 13 496 -10 453 -10 c 0
 406 -10 361 14 361 73 c 1
 451 71 l 1
 451 51 463 42 477 42 c 0
 492 42 510 48 529 82 c 1
 561 63 l 1
184 393 m 0
 184 359 163 340 129 340 c 0
 98 340 70 359 70 403 c 1
 156 445 l 1
 156 427 184 432 184 393 c 0
EndSplineSet
EndChar

StartChar: b
Encoding: 98 98 39
Width: 628
VWidth: 1155
Flags: HW
LayerCount: 2
Back
SplineSet
-3 754 m 5
 161 754 l 5
 161 392 l 5
 165 392 l 5
 176.333007812 412 194.5 428.666992188 219.5 442 c 132
 244.5 455.333007812 272.666992188 462 304 462 c 4
 353.333007812 462 397 440.333007812 435 397 c 4
 472.333007812 353.666992188 491 296.333007812 491 225 c 260
 491 154.333007812 472 97 434 53 c 4
 396 9.6669921875 352.333007812 -12 303 -12 c 4
 271.666992188 -12 243.666992188 -5.3330078125 219 8 c 132
 194.333007812 21.3330078125 176.333007812 38 165 58 c 5
 161 58 l 5
 161 0 l 5
 -3 0 l 5
 -3 25 l 5
 76 25 l 5
 76 729 l 5
 -3 729 l 5
 -3 754 l 5
292 22 m 4
 320.666992188 22 343.833007812 35.1669921875 361.5 61.5 c 4
 379.833007812 90.51171875 389 144.677734375 389 224 c 260
 389 304.615234375 379.666992188 359.282226562 361 388 c 4
 343.666992188 414.666992188 320.333007812 428 291 428 c 4
 255.666992188 428 226.166992188 413.666992188 202.5 385 c 4
 174.833007812 352.333007812 161 307 161 249 c 6
 161 210 l 6
 161 144.666992188 173.833007812 97 199.5 67 c 132
 225.166992188 37 256 22 292 22 c 4
EndSplineSet
Fore
SplineSet
195 260 m 0
 195 146 252 42 343 42 c 4
 427 42 483 146 483 260 c 0
 483 374 427 478 343 478 c 4
 252 478 195 374 195 260 c 0
166 260 m 0
 166 422 240 529 361 529 c 0
 480 529 583 430 583 260 c 0
 583 90 480 -10 361 -10 c 0
 240 -10 166 98 166 260 c 0
15 55 m 1
 105 55 l 1
 105 0 l 1
 15 0 l 1
 15 55 l 1
15 780 m 1
 105 780 l 1
 105 725 l 1
 15 725 l 1
 15 780 l 1
105 780 m 1
 195 780 l 1
 195 0 l 1
 105 0 l 1
 105 780 l 1
EndSplineSet
EndChar

StartChar: c
Encoding: 99 99 40
Width: 548
VWidth: 1155
Flags: HW
LayerCount: 2
Back
SplineSet
284 435 m 4
 236.666992188 435 205.333007812 421.166992188 190 393.5 c 4
 166.666992188 351.166992188 155 294.666992188 155 224 c 4
 155 157.333007812 166.166992188 102.833007812 188.5 60.5 c 4
 203.5 32.1669921875 234 18 280 18 c 4
 316.666992188 18 347.166992188 27.8330078125 371.5 47.5 c 132
 395.833007812 67.1669921875 417 101 435 149 c 5
 463 149 l 5
 449.666992188 101 427.333007812 62.1669921875 396 32.5 c 132
 364.666992188 2.8330078125 325 -12 277 -12 c 4
 217 -12 163.5 12.8330078125 116.5 62.5 c 4
 72.1669921875 109.5 50 164 50 226 c 4
 50 288.666992188 72 342.666992188 116 388 c 4
 164 437.333007812 220.333007812 462 285 462 c 4
 307 462 327.666992188 459.166992188 347 453.5 c 132
 366.333007812 447.833007812 383.333007812 440 398 430 c 132
 412.666992188 420 423 408.5 429 395.5 c 132
 435 382.5 438 367.666992188 438 351 c 132
 438 334.333007812 433.5 320.666992188 424.5 310 c 132
 415.5 299.333007812 402.333007812 294 385 294 c 4
 369 294 355.833007812 298.333007812 345.5 307 c 132
 335.166992188 315.666992188 330 328 330 344 c 4
 330 358.666992188 332.833007812 369.833007812 338.5 377.5 c 132
 344.166992188 385.166992188 347 393.666992188 347 403 c 4
 347 424.333007812 326 435 284 435 c 4
EndSplineSet
Fore
SplineSet
45 250 m 5
 146 270 l 5
 146 146 185 39 294 39 c 4
 377 39 429 93 454 173 c 5
 508 173 l 5
 477 66 413 -10 292 -10 c 4
 121 -10 45 110 45 250 c 5
490 381 m 1
 401 437 l 1
 401 464 358 488 304 488 c 0
 195 488 146 374 146 270 c 1
 45 250 l 1
 45 410 133 530 294 530 c 0
 416 530 490 463 490 381 c 1
401 437 m 1
 490 381 l 1
 490 333 455 315 426 315 c 0
 399 315 369 336 369 373 c 0
 369 409 401 414 401 437 c 1
EndSplineSet
EndChar

StartChar: d
Encoding: 100 100 41
Width: 628
VWidth: 1155
Flags: HW
LayerCount: 2
Back
SplineSet
378 0 m 5
 225 0 l 5
 225 58 l 5
 221 58 l 5
 209.666992188 38 191.666992188 21.3330078125 167 8 c 132
 142.333007812 -5.3330078125 114.333007812 -12 83 -12 c 4
 33 -12 -11 9.6669921875 -49 53 c 4
 -86.3330078125 96.3330078125 -105 153.666992188 -105 225 c 260
 -105 296.333007812 -86.3330078125 353.666992188 -49 397 c 4
 -11 440.333007812 32.6669921875 462 82 462 c 4
 113.333007812 462 141.5 455.333007812 166.5 442 c 132
 191.5 428.666992188 209.666992188 412 221 392 c 5
 225 392 l 5
 225 729 l 5
 121 729 l 5
 121 754 l 5
 310 754 l 5
 310 25 l 5
 378 25 l 5
 378 0 l 5
94 22 m 4
 130.666992188 22 160 36.3330078125 182 65 c 4
 210.666992188 101 225 146 225 200 c 6
 225 240 l 6
 225 305.333007812 212.333007812 353 187 383 c 132
 161.666992188 413 130.166992188 428 92.5 428 c 132
 54.8330078125 428 30.6669921875 413 20 383 c 4
 4.6669921875 344.333007812 -3 291.333007812 -3 224 c 260
 -3 151.333007812 4.5 98.8330078125 19.5 66.5 c 4
 33.1669921875 36.8330078125 58 22 94 22 c 4
EndSplineSet
Fore
SplineSet
433 260 m 4
 433 374 376 478 285 478 c 4
 201 478 145 374 145 260 c 4
 145 146 201 42 285 42 c 4
 376 42 433 146 433 260 c 4
462 260 m 4
 462 98 388 -10 267 -10 c 4
 148 -10 45 90 45 260 c 4
 45 430 148 529 267 529 c 4
 388 529 462 422 462 260 c 4
613 55 m 5
 613 0 l 5
 523 0 l 5
 523 55 l 5
 613 55 l 5
433 780 m 5
 433 725 l 5
 343 725 l 5
 343 780 l 5
 433 780 l 5
523 780 m 5
 523 0 l 5
 433 0 l 5
 433 780 l 5
 523 780 l 5
EndSplineSet
EndChar

StartChar: e
Encoding: 101 101 42
Width: 553
VWidth: 1155
Flags: HW
LayerCount: 2
Back
SplineSet
133 262 m 5
 133 225 l 6
 133 155 142.166992188 101.5 160.5 64.5 c 4
 176.166992188 33.5 209 18 259 18 c 4
 292.333007812 18 321.666992188 27 347 45 c 132
 372.333007812 63 394 94.3330078125 412 139 c 5
 440 139 l 5
 426.666992188 91.6669921875 403.666992188 54.6669921875 371 28 c 132
 338.333007812 1.3330078125 300 -12 256 -12 c 4
 194.666992188 -12 140.833007812 12.3330078125 94.5 61 c 4
 50.8330078125 107 29 161.666992188 29 225 c 260
 29 291 48.6669921875 345.666992188 88 389 c 4
 132 437.666992188 186.333007812 462 251 462 c 4
 302.333007812 462 346.666992188 443.833007812 384 407.5 c 4
 419.333007812 373.166992188 437 326.666992188 437 268 c 6
 437 262 l 5
 133 262 l 5
346 344 m 6
 346 404.666992188 312.666992188 435 246 435 c 4
 207.333007812 435 179.666992188 421.5 163 394.5 c 4
 147 368.833007812 137.333007812 333 134 287 c 5
 346 287 l 5
 346 344 l 6
EndSplineSet
Fore
SplineSet
45 250 m 1
 146 270 l 1
 146 146 181 39 290 39 c 0
 373 39 427 93 452 173 c 5
 503 173 l 5
 477 66 409 -10 278 -10 c 0
 127 -10 45 110 45 250 c 1
122 304 m 1
 446 304 l 1
 446 261 l 1
 122 261 l 1
 122 304 l 1
491 261 m 1
 446 261 l 1
 446 290 l 1
 491 290 l 1
 491 261 l 1
502 261 m 1
 410 261 l 1
 410 364 384 486 285 486 c 0
 176 486 146 374 146 270 c 1
 45 250 l 1
 45 410 124 530 285 530 c 0
 454 530 502 400 502 261 c 1
EndSplineSet
EndChar

StartChar: f
Encoding: 102 102 43
Width: 380
VWidth: 1155
Flags: HW
LayerCount: 2
Back
SplineSet
13 450 m 5
 110 450 l 5
 110 508 l 6
 110 596 120.166992188 659.5 140.5 698.5 c 4
 164.166992188 742.833007812 206 765 266 765 c 4
 303.333007812 765 330.166992188 758.166992188 346.5 744.5 c 4
 362.833007812 730.166992188 371 711.333007812 371 688 c 4
 371 673.333007812 367 661.333007812 359 652 c 132
 351 642.666992188 339.888671875 637.854492188 325.666015625 637.563476562 c 4
 311.221679688 637.854492188 300.333007812 642.166992188 293 650.5 c 132
 285.666992188 658.833007812 282 668 282 678 c 132
 282 688 284.333007812 696.166992188 289 702.5 c 132
 293.666992188 708.833007812 296 715.666992188 296 723 c 4
 296 733 285.166992188 738 263.5 738 c 132
 241.833007812 738 225 728.833007812 213 710.5 c 132
 201 692.166992188 195 661.333007812 195 618 c 6
 195 450 l 5
 308 450 l 5
 308 425 l 5
 195 425 l 5
 195 25 l 5
 298 25 l 5
 298 0 l 5
 13 0 l 5
 13 25 l 5
 110 25 l 5
 110 425 l 5
 13 425 l 5
 13 450 l 5
EndSplineSet
Fore
SplineSet
485 679 m 1
 389 718 l 1
 389 730 371 745 329 745 c 0
 239 745 210 677 210 550 c 1
 120 572 l 5
 120 703 197 790 327 790 c 4
 428 790 485 736 485 679 c 1
368 661 m 0
 368 691 389 698 389 718 c 1
 485 679 l 1
 485 636 461 613 426 613 c 0
 391 613 368 633 368 661 c 0
30 55 m 1
 120 55 l 1
 120 0 l 1
 30 0 l 1
 30 55 l 1
210 55 m 1
 330 55 l 1
 330 0 l 1
 210 0 l 1
 210 55 l 1
30 520 m 1
 350 520 l 1
 350 465 l 1
 30 465 l 1
 30 520 l 1
120 572 m 1
 210 550 l 1
 210 0 l 1
 120 0 l 1
 120 572 l 1
EndSplineSet
EndChar

StartChar: g
Encoding: 103 103 44
Width: 617
VWidth: 1155
Flags: HW
LayerCount: 2
Back
SplineSet
261 -326 m 4
 233 -326 206.833007812 -322.333007812 182.5 -315 c 132
 158.166992188 -307.666992188 137.333007812 -297.5 120 -284.5 c 132
 102.666992188 -271.5 89 -256.166992188 79 -238.5 c 132
 69 -220.833007812 64 -201.666992188 64 -181 c 4
 64 -156.333007812 70.8330078125 -133 84.5 -111 c 132
 98.1669921875 -89 117 -71.3330078125 141 -58 c 5
 141 -54 l 5
 92.3330078125 -33.3330078125 68 2 68 52 c 4
 68 86 77.3330078125 112.5 96 131.5 c 132
 114.666992188 150.5 141.666992188 161.666992188 177 165 c 5
 149 182.333007812 129.166992188 199 117.5 215 c 4
 97.1669921875 242.333007812 87 271 87 301 c 4
 87 342.333007812 104.666992188 379.5 140 412.5 c 132
 175.333007812 445.5 216.333007812 462 263 462 c 4
 288.333007812 462 313 457.333007812 337 448 c 132
 361 438.666992188 381 425 397 407 c 5
 404.333007812 425 413 438.666992188 423 448 c 132
 433 457.333007812 446.666992188 462 464 462 c 4
 477.333007812 462 488.666992188 458.333007812 498 451 c 4
 506.666992188 444.333007812 511 434.333007812 511 421 c 4
 511 409.666992188 507.666992188 401 501 395 c 132
 494.333007812 389 486.333007812 386 477 386 c 4
 465.666992188 386 456.833007812 390.333007812 450.5 399 c 4
 445.5 405.666992188 439.5 409 432.5 409 c 4
 426.833007812 409 423.333007812 407.333007812 422 404 c 132
 420.666992188 400.666992188 419.333007812 392.666992188 418 380 c 5
 432 360.666992188 439 334.333007812 439 301 c 4
 439 251.666992188 423 213.333007812 391 186 c 4
 356.333007812 156 313.666992188 141 263 141 c 6
 200 141 l 6
 173.333007812 141 151.333007812 135.666992188 134 125 c 132
 116.666992188 114.333007812 108 100 108 82 c 132
 108 64 112.5 52 121.5 46 c 4
 134.90625 35.3330078125 148.739257812 30 163 30 c 6
 370 30 l 6
 413.333007812 30 444.666992188 18 464 -6 c 132
 483.333007812 -30 493 -58 493 -90 c 4
 493 -125.333007812 487.5 -157.5 476.5 -186.5 c 132
 465.5 -215.5 449.833007812 -240.333007812 429.5 -261 c 132
 409.166992188 -281.666992188 384.666992188 -297.666992188 356 -309 c 132
 327.333007812 -320.333007812 295.666992188 -326 261 -326 c 4
270 -296 m 4
 294 -296 317 -291.5 339 -282.5 c 132
 361 -273.5 380.333007812 -261.5 397 -246.5 c 132
 413.666992188 -231.5 427 -214 437 -194 c 132
 447 -174 452 -153.333007812 452 -132 c 4
 452 -110 446.666992188 -92 436 -78 c 132
 425.333007812 -64 410.333007812 -57 391 -57 c 6
 180 -57 l 5
 162 -71 149 -88 141 -108 c 4
 131 -133.333007812 126 -154.666992188 126 -172 c 4
 126 -209.333007812 138.666992188 -239.166992188 164 -261.5 c 4
 189.333007812 -284.5 224.666992188 -296 270 -296 c 4
262 168 m 4
 294.641601562 168.350585938 317.641601562 178.017578125 331 197 c 4
 341.666992188 213 347 246.833007812 347 298.5 c 4
 347 352.833007812 342 387.333007812 332 402 c 4
 320 420.666992188 296.666992188 430 262 430 c 4
 232 430 211.666992188 420.5 201 401.5 c 4
 187 377.166992188 180 343.333007812 180 300 c 260
 180 247.333007812 185.5 213.333007812 196.5 198 c 4
 211.5 177.333007812 233.333007812 167.333007812 262 168 c 4
EndSplineSet
Fore
SplineSet
210 22 m 1
 122 -4 120 -70 120 -102 c 0
 120 -170 170 -213 276 -213 c 0
 360 -213 449 -179 449 -107 c 5
 520 -82 l 1
 520 -193 420 -260 260 -260 c 0
 117 -260 25 -220 25 -135 c 0
 25 -44 115 12 160 12 c 1
 210 22 l 1
57 84 m 1
 125 106 l 1
 125 69 167 69 222 69 c 0
 247 69 305 70 333 70 c 0
 428 70 520 54 520 -82 c 1
 449 -107 l 5
 449 -53 415 -9 350 -9 c 4
 329 -9 258 -9 236 -9 c 0
 146 -9 57 -8 57 84 c 1
250 178 m 1
 207 178 125 140 125 106 c 1
 57 84 l 1
 57 148 137 197 252 197 c 1
 250 178 l 1
597 439 m 1
 515 478 l 1
 515 488 508 493 496 493 c 0
 459 493 417 467 397 380 c 1
 363 402 l 1
 383 493 453 530 493 530 c 0
 564 530 597 491 597 439 c 1
496 428 m 0
 496 460 515 462 515 478 c 1
 597 439 l 1
 597 405 574 384 544 384 c 0
 516 384 496 403 496 428 c 0
50 345 m 0
 50 455 128 530 249 530 c 0
 370 530 448 455 448 345 c 0
 448 235 370 160 249 160 c 0
 128 160 50 235 50 345 c 0
145 345 m 0
 145 271 170 200 249 200 c 0
 328 200 353 271 353 345 c 0
 353 419 328 490 249 490 c 0
 170 490 145 419 145 345 c 0
EndSplineSet
EndChar

StartChar: h
Encoding: 104 104 45
Width: 660
VWidth: 1155
Flags: HW
LayerCount: 2
Back
SplineSet
-5 754 m 5
 159 754 l 5
 159 367 l 5
 163 367 l 5
 177.666992188 395 198 417.833007812 224 435.5 c 132
 250 453.166992188 282.833007812 462 322.5 462 c 4
 368.833007812 462 404.833007812 452.166992188 430.5 432.5 c 4
 454.166992188 414.166992188 466 387.666992188 466 353 c 6
 466 25 l 5
 534 25 l 5
 534 0 l 5
 305 0 l 5
 305 25 l 5
 381 25 l 5
 381 353 l 6
 381 378.333007812 372.166992188 397.166992188 354.5 409.5 c 132
 336.833007812 421.833007812 314.666992188 428 288 428 c 4
 270.666992188 428 253.833007812 423 237.5 413 c 132
 221.166992188 403 207.5 389.166992188 196.5 371.5 c 132
 185.5 353.833007812 175.833007812 332.833007812 167.5 308.5 c 4
 161.833007812 292.166992188 159 266 159 230 c 6
 159 25 l 5
 224 25 l 5
 224 0 l 5
 -5 0 l 5
 -5 25 l 5
 74 25 l 5
 74 729 l 5
 -5 729 l 5
 -5 754 l 5
EndSplineSet
Fore
SplineSet
450 358 m 1
 540 369 l 1
 540 0 l 1
 450 0 l 1
 450 358 l 1
450 358 m 1
 450 432 421 473 355 473 c 4
 257 473 195 386 195 283 c 1
 166 283 l 1
 166 385 215 530 378 530 c 0
 505 530 540 476 540 369 c 1
 450 358 l 1
540 55 m 1
 630 55 l 1
 630 0 l 1
 540 0 l 1
 540 55 l 1
361 55 m 1
 451 55 l 1
 451 0 l 1
 361 0 l 1
 361 55 l 1
195 55 m 1
 285 55 l 1
 285 0 l 1
 195 0 l 1
 195 55 l 1
105 780 m 1
 195 780 l 1
 195 0 l 1
 105 0 l 1
 105 780 l 1
15 780 m 1
 105 780 l 1
 105 725 l 1
 15 725 l 1
 15 780 l 1
15 55 m 1
 105 55 l 1
 105 0 l 1
 15 0 l 1
 15 55 l 1
EndSplineSet
EndChar

StartChar: i
Encoding: 105 105 46
Width: 310
VWidth: 1155
Flags: HW
LayerCount: 2
Back
SplineSet
88 678 m 132
 88 693.333007812 93.3330078125 706.333007812 104 717 c 132
 114.666992188 727.666992188 127.666992188 733 143 733 c 132
 158.333007812 733 171.333007812 727.666992188 182 717 c 132
 192.666992188 706.333007812 198 693.333007812 198 678 c 132
 198 662.666992188 192.666992188 649.666992188 182 639 c 132
 171.333007812 628.333007812 158.333007812 623 143 623 c 132
 127.666992188 623 114.666992188 628.333007812 104 639 c 132
 93.3330078125 649.666992188 88 662.666992188 88 678 c 132
  Spiro
    88 678 o
    92 699.25 o
    104 717 o
    121.75 729 o
    143 733 o
    164.25 729 o
    182 717 o
    194 699.25 o
    198 678 o
    194 656.75 o
    182 639 o
    164.25 627 o
    143 623 o
    121.75 627 o
    104 639 o
    92 656.75 o
    0 0 z
  EndSpiro
47 0 m 1053
  Spiro
    47 0 {
    0 0 z
  EndSpiro
14 450 m 5
 188 450 l 5
 188 25 l 5
 268 25 l 5
 268 0 l 5
 24 0 l 5
 24 25 l 5
 103 25 l 5
 103 425 l 5
 14 425 l 5
 14 450 l 5
  Spiro
    14 450 v
    188 450 v
    188 25 v
    268 25 v
    268 0 v
    24 0 v
    24 25 v
    103 25 v
    103 425 v
    14 425 v
    0 0 z
  EndSpiro
EndSplineSet
Fore
SplineSet
90 700 m 0
 90 733 117 760 150 760 c 0
 183 760 210 733 210 700 c 0
 210 667 183 640 150 640 c 0
 117 640 90 667 90 700 c 0
25 55 m 1
 115 55 l 1
 115 0 l 1
 25 0 l 1
 25 55 l 1
205 55 m 1
 295 55 l 1
 295 0 l 1
 205 0 l 1
 205 55 l 1
25 520 m 5
 115 520 l 5
 115 465 l 5
 25 465 l 5
 25 520 l 5
115 520 m 1
 205 520 l 1
 205 0 l 1
 115 0 l 1
 115 520 l 1
EndSplineSet
EndChar

StartChar: j
Encoding: 106 106 47
Width: 302
VWidth: 1155
Flags: HW
LayerCount: 2
Back
SplineSet
99 678 m 132
 99 693.333333333 104.333333333 706.333333333 115 717 c 132
 125.666666667 727.666666667 138.666666667 733 154 733 c 132
 169.333333333 733 182.333333333 727.666666667 193 717 c 132
 203.666666667 706.333333333 209 693.333333333 209 678 c 132
 209 662.666666667 203.666666667 649.666666667 193 639 c 132
 182.333333333 628.333333333 169.333333333 623 154 623 c 132
 138.666666667 623 125.666666667 628.333333333 115 639 c 132
 104.333333333 649.666666667 99 662.666666667 99 678 c 132
55 -326 m 4
 28.3333333333 -326 6.66666666667 -319.666666667 -10 -307 c 132
 -26.6666666667 -294.333333333 -35 -279.666666667 -35 -263 c 4
 -35 -247 -30.5 -234.5 -21.5 -225.5 c 132
 -12.5 -216.5 -1 -212 13 -212 c 4
 25 -212 35.3333333333 -215.166666667 44 -221.5 c 132
 52.6666666667 -227.833333333 57 -237 57 -249 c 4
 57 -253.666666667 56.5 -258 55.5 -262 c 132
 54.5 -266 54 -270 54 -274 c 4
 54 -281.333333333 55.8333333333 -286.333333333 59.5 -289 c 132
 63.1666666667 -291.666666667 68 -293 74 -293 c 4
 86 -293 95.6666666667 -286.5 103 -273.5 c 132
 110.333333333 -260.5 114 -235 114 -197 c 6
 114 425 l 5
 25 425 l 5
 25 450 l 5
 199 450 l 5
 199 -47 l 6
 199 -94.3333333333 198.666666667 -135.5 198 -170.5 c 132
 197.333333333 -205.5 189 -234.5 173 -257.5 c 132
 157 -280.5 139.5 -297.666666667 120.5 -309 c 132
 101.5 -320.333333333 79.6666666667 -326 55 -326 c 4
EndSplineSet
Fore
SplineSet
92 700 m 0
 92 733 119 760 152 760 c 0
 185 760 212 733 212 700 c 0
 212 667 185 640 152 640 c 0
 119 640 92 667 92 700 c 0
19 -125 m 0
 19 -160 0 -159 0 -179 c 1
 -98 -140 l 1
 -98 -102 -74 -69 -39 -69 c 0
 -5 -69 19 -92 19 -125 c 0
-98 -140 m 5
 0 -179 l 5
 0 -192 6 -216 43 -216 c 4
 154 -216 115 -10 115 104 c 5
 205 11 l 5
 205 -139 184 -260 43 -260 c 4
 -46 -260 -98 -202 -98 -140 c 5
25 520 m 1
 115 520 l 1
 115 465 l 1
 25 465 l 1
 25 520 l 1
115 520 m 1
 205 520 l 1
 205 11 l 1
 115 104 l 1
 115 520 l 1
EndSplineSet
EndChar

StartChar: k
Encoding: 107 107 48
Width: 626
VWidth: 1155
Flags: HW
LayerCount: 2
Back
SplineSet
-9 754 m 5
 155 754 l 5
 155 25 l 5
 210 25 l 5
 210 0 l 5
 -9 0 l 5
 -9 25 l 5
 70 25 l 5
 70 729 l 5
 -9 729 l 5
 -9 754 l 5
239 450 m 5
 471 450 l 5
 471 425 l 5
 380 425 l 5
 234.577148438 278.74609375 l 5
 435 25 l 5
 488 25 l 5
 488 0 l 5
 272 0 l 5
 272 25 l 5
 332 25 l 5
 162 249 l 5
 337 425 l 5
 239 425 l 5
 239 450 l 5
EndSplineSet
Fore
SplineSet
354 55 m 1
 591 55 l 1
 591 0 l 1
 354 0 l 1
 354 55 l 1
577 465 m 1
 304 465 l 1
 304 520 l 1
 577 520 l 1
 577 465 l 1
583 0 m 1
 470 0 l 1
 187 291 l 1
 272 326 l 1
 583 0 l 1
260 280 m 1
 187 291 l 1
 479 520 l 5
 554 520 l 1
 260 280 l 1
15 55 m 1
 105 55 l 1
 105 0 l 1
 15 0 l 1
 15 55 l 1
195 55 m 1
 275 55 l 1
 275 0 l 1
 195 0 l 1
 195 55 l 1
15 780 m 1
 105 780 l 1
 105 725 l 1
 15 725 l 1
 15 780 l 1
105 780 m 1
 195 780 l 1
 195 0 l 1
 105 0 l 1
 105 780 l 1
EndSplineSet
EndChar

StartChar: l
Encoding: 108 108 49
Width: 300
VWidth: 1155
Flags: HW
LayerCount: 2
Back
SplineSet
2 754 m 5
 166 754 l 5
 166 25 l 5
 246 25 l 5
 246 0 l 5
 2 0 l 5
 2 25 l 5
 81 25 l 5
 81 729 l 5
 2 729 l 5
 2 754 l 5
EndSplineSet
Fore
SplineSet
15 55 m 5
 105 55 l 5
 105 0 l 5
 15 0 l 5
 15 55 l 5
195 55 m 5
 285 55 l 5
 285 0 l 5
 195 0 l 5
 195 55 l 5
15 780 m 5
 105 780 l 5
 105 725 l 5
 15 725 l 5
 15 780 l 5
105 780 m 5
 195 780 l 5
 195 0 l 5
 105 0 l 5
 105 780 l 5
EndSplineSet
EndChar

StartChar: m
Encoding: 109 109 50
Width: 923
VWidth: 1155
Flags: HW
LayerCount: 2
Back
SplineSet
37 450 m 5
 201 450 l 5
 201 367 l 5
 205 367 l 5
 218.333007812 395 237.833007812 417.833007812 263.5 435.5 c 132
 289.166992188 453.166992188 321 462 359 462 c 4
 395 462 422 453 440 435 c 132
 458 417 469 394.333007812 473 367 c 5
 478 367 l 5
 490 392.333007812 511.833007812 415.833007812 543.5 437.5 c 4
 567.833007812 453.833007812 601.333007812 462 644 462 c 4
 674.666992188 462 702.833007812 451.5 728.5 430.5 c 4
 746.833007812 414.833007812 756 389 756 353 c 6
 756 25 l 5
 824 25 l 5
 824 0 l 5
 595 0 l 5
 595 25 l 5
 671 25 l 5
 671 353 l 6
 671 378.333007812 665.166992188 397.166992188 653.5 409.5 c 132
 641.833007812 421.833007812 627 428 609 428 c 4
 571.666992188 428 538 403.666992188 508 355 c 4
 488.666992188 324.333007812 479 280 479 222 c 6
 479 25 l 5
 547 25 l 5
 547 0 l 5
 317 0 l 5
 317 25 l 5
 393 25 l 5
 393 353 l 6
 393 378.333007812 387.166992188 397.166992188 375.5 409.5 c 132
 363.833007812 421.833007812 346.666992188 428 324 428 c 4
 308 428 292.833007812 423 278.5 413 c 132
 264.166992188 403 250.833007812 389.166992188 238.5 371.5 c 132
 226.166992188 353.833007812 216.833007812 332.833007812 210.5 308.5 c 132
 204.166992188 284.166992188 201 258 201 230 c 6
 201 25 l 5
 266 25 l 5
 266 0 l 5
 37 0 l 5
 37 25 l 5
 116 25 l 5
 116 425 l 5
 37 425 l 5
 37 450 l 5
EndSplineSet
Fore
SplineSet
812 55 m 1
 893 55 l 1
 893 0 l 1
 812 0 l 1
 812 55 l 1
629 55 m 1
 722 55 l 1
 722 0 l 1
 629 0 l 1
 629 55 l 1
722 358 m 1
 812 369 l 1
 812 0 l 1
 722 0 l 1
 722 358 l 1
336 55 m 1
 416 55 l 1
 416 0 l 1
 336 0 l 1
 336 55 l 1
722 358 m 1
 722 432 703 473 647 473 c 4
 539 473 506 386 506 283 c 1
 467 283 l 1
 467 395 527 530 670 530 c 0
 777 530 812 476 812 369 c 1
 722 358 l 1
506 55 m 1
 587 55 l 1
 587 0 l 1
 506 0 l 1
 506 55 l 1
416 358 m 1
 506 369 l 1
 506 0 l 1
 416 0 l 1
 416 358 l 1
200 55 m 1
 293 55 l 1
 293 0 l 1
 200 0 l 1
 200 55 l 1
110 520 m 1
 200 520 l 1
 200 0 l 1
 110 0 l 1
 110 520 l 1
30 520 m 1
 110 520 l 1
 110 465 l 1
 30 465 l 1
 30 520 l 1
30 55 m 1
 110 55 l 1
 110 0 l 1
 30 0 l 1
 30 55 l 1
416 358 m 1
 416 432 397 473 341 473 c 4
 243 473 200 386 200 283 c 1
 171 283 l 1
 171 395 221 530 364 530 c 0
 471 530 506 476 506 369 c 1
 416 358 l 1
EndSplineSet
EndChar

StartChar: n
Encoding: 110 110 51
Width: 675
VWidth: 1155
Flags: HW
LayerCount: 2
Back
SplineSet
36 450 m 5
 195 450 l 5
 195 367 l 5
 199 367 l 5
 213 395 235.5 417.833007812 266.5 435.5 c 132
 297.5 453.166992188 331.5 462 368.5 462 c 4
 404.166992188 462 434 451.5 458 430.5 c 4
 476.666992188 414.166992188 486 388.333007812 486 353 c 6
 486 25 l 5
 554 25 l 5
 554 0 l 5
 325 0 l 5
 325 25 l 5
 401 25 l 5
 401 353 l 6
 401 378.333007812 395 397.166992188 383 409.5 c 132
 371 421.833007812 355.333007812 428 336 428 c 4
 319.333007812 428 302 423 284 413 c 132
 266 403 250.666992188 389.166992188 238 371.5 c 132
 225.333007812 353.833007812 215 332.833007812 207 308.5 c 132
 199 284.166992188 195 258 195 230 c 6
 195 25 l 5
 260 25 l 5
 260 0 l 5
 36 0 l 5
 36 25 l 5
 115 25 l 5
 115 425 l 5
 36 425 l 5
 36 450 l 5
EndSplineSet
Fore
SplineSet
555 55 m 1
 645 55 l 1
 645 0 l 1
 555 0 l 1
 555 55 l 1
375 55 m 1
 465 55 l 1
 465 0 l 1
 375 0 l 1
 375 55 l 1
465 358 m 1
 555 369 l 1
 555 0 l 1
 465 0 l 1
 465 358 l 1
210 55 m 1
 300 55 l 1
 300 0 l 1
 210 0 l 1
 210 55 l 1
120 520 m 1
 210 520 l 1
 210 0 l 1
 120 0 l 1
 120 520 l 1
30 520 m 1
 120 520 l 1
 120 465 l 1
 30 465 l 1
 30 520 l 1
30 55 m 1
 120 55 l 1
 120 0 l 1
 30 0 l 1
 30 55 l 1
465 358 m 1
 465 432 436 473 370 473 c 4
 272 473 210 386 210 283 c 1
 181 283 l 1
 181 385 230 530 393 530 c 4
 520 530 555 476 555 369 c 1
 465 358 l 1
EndSplineSet
EndChar

StartChar: o
Encoding: 111 111 52
Width: 568
VWidth: 1155
Flags: HW
LayerCount: 2
Back
SplineSet
31 225 m 260
 31 287.666992188 53 342.166992188 97 388.5 c 4
 143.666992188 437.5 198 462 260 462 c 260
 322 462 376.333007812 437.5 423 388.5 c 4
 467 342.166992188 489 287.666992188 489 225 c 260
 489 162.333007812 467 107.833007812 423 61.5 c 4
 376.333007812 12.5 322 -12 260 -12 c 260
 198 -12 143.666992188 12.5 97 61.5 c 4
 53 107.833007812 31 162.333007812 31 225 c 260
135 225 m 260
 135 155 146.333007812 99.5 169 58.5 c 4
 183.666992188 31.5 214 18 260 18 c 132
 306 18 336.333007812 31.5 351 58.5 c 4
 373.666992188 99.5 385 155 385 225 c 260
 385 295 373.666992188 350.5 351 391.5 c 4
 336.333007812 418.5 306 432 260 432 c 132
 214 432 183.666992188 418.5 169 391.5 c 4
 146.333007812 350.5 135 295 135 225 c 260
EndSplineSet
Fore
SplineSet
145 270 m 4
 145 146 175 35 284 35 c 4
 393 35 423 146 423 250 c 4
 423 374 393 485 284 485 c 4
 175 485 145 374 145 270 c 4
45 250 m 4
 45 410 123 530 284 530 c 4
 445 530 523 410 523 270 c 4
 523 110 445 -10 284 -10 c 4
 123 -10 45 110 45 250 c 4
EndSplineSet
EndChar

StartChar: p
Encoding: 112 112 53
Width: 628
VWidth: 1155
Flags: HW
LayerCount: 2
Back
SplineSet
284 428 m 4
 247.333007812 428 218 413.666992188 196 385 c 4
 167.333007812 349 153 304 153 250 c 6
 153 210 l 6
 153 144.666992188 165.666992188 97 191 67 c 132
 216.333007812 37 247.833007812 22 285.5 22 c 132
 323.166992188 22 347.333007812 37 358 67 c 4
 373.333007812 105.666992188 381 158.666992188 381 226 c 4
 381 298.666992188 373.5 351.166992188 358.5 383.5 c 4
 344.833007812 413.166992188 320 428 284 428 c 4
0 450 m 5
 153 450 l 5
 153 392 l 5
 157 392 l 5
 168.333007812 412 186.333007812 428.666992188 211 442 c 132
 235.666992188 455.333007812 263.666992188 462 295 462 c 4
 345 462 389 440.333007812 427 397 c 4
 464.333007812 353.666992188 483 296.333007812 483 225 c 132
 483 153.666992188 464.333007812 96.3330078125 427 53 c 4
 389 9.6669921875 345.333007812 -12 296 -12 c 4
 264.666992188 -12 236.5 -5.3330078125 211.5 8 c 132
 186.5 21.3330078125 168.333007812 38 157 58 c 5
 153 58 l 5
 153 -289 l 5
 257 -289 l 5
 257 -314 l 5
 10 -314 l 5
 10 -289 l 5
 68 -289 l 5
 68 425 l 5
 0 425 l 5
 0 450 l 5
EndSplineSet
Fore
SplineSet
15 -250 m 1
 15 -195 l 5
 105 -195 l 5
 105 -250 l 1
 15 -250 l 1
195 260 m 0
 195 146 252 42 343 42 c 0
 427 42 483 146 483 260 c 0
 483 374 427 478 343 478 c 0
 252 478 195 374 195 260 c 0
166 260 m 0
 166 422 240 530 361 530 c 0
 480 530 583 430 583 260 c 0
 583 90 480 -9 361 -9 c 0
 240 -9 166 98 166 260 c 0
15 465 m 1
 15 520 l 1
 105 520 l 1
 105 465 l 1
 15 465 l 1
195 -250 m 1
 195 -195 l 5
 285 -195 l 5
 285 -250 l 1
 195 -250 l 1
105 -250 m 1
 105 520 l 1
 195 520 l 1
 195 -250 l 1
 105 -250 l 1
EndSplineSet
EndChar

StartChar: q
Encoding: 113 113 54
Width: 623
VWidth: 1155
Flags: HW
LayerCount: 2
Back
SplineSet
266 428 m 4
 237.333007812 428 214.166992188 414.833007812 196.5 388.5 c 4
 178.166992188 359.489257812 169 305.322265625 169 226 c 260
 169 145.384765625 178.333007812 90.7177734375 197 62 c 4
 214.333007812 35.3330078125 237.666992188 22 267 22 c 4
 302.333007812 22 331.833007812 36.3330078125 355.5 65 c 4
 383.166992188 97.6669921875 397 143 397 201 c 6
 397 240 l 6
 397 305.333007812 384.166992188 353 358.5 383 c 132
 332.833007812 413 302 428 266 428 c 4
397 -289 m 5
 397 58 l 5
 393 58 l 5
 381.666992188 38 363.5 21.3330078125 338.5 8 c 132
 313.5 -5.3330078125 285.333007812 -12 254 -12 c 4
 204.666992188 -12 161 9.6669921875 123 53 c 4
 85.6669921875 96.3330078125 67 153.666992188 67 225 c 4
 67 295.666992188 86 353 124 397 c 4
 162 440.333007812 205.666992188 462 255 462 c 4
 286.333007812 462 314.333007812 455.333007812 339 442 c 132
 363.666992188 428.666992188 381.666992188 412 393 392 c 5
 397 392 l 5
 397 450 l 5
 561 450 l 5
 561 425 l 5
 482 425 l 5
 482 -289 l 5
 561 -289 l 5
 561 -314 l 5
 307 -314 l 5
 307 -289 l 5
 397 -289 l 5
EndSplineSet
Fore
SplineSet
433 -250 m 1
 343 -250 l 1
 343 -195 l 5
 433 -195 l 5
 433 -250 l 1
433 260 m 0
 433 374 376 478 285 478 c 0
 201 478 145 374 145 260 c 0
 145 146 201 42 285 42 c 0
 376 42 433 146 433 260 c 0
462 260 m 0
 462 98 388 -9 267 -9 c 0
 148 -9 45 90 45 260 c 0
 45 430 148 530 267 530 c 0
 388 530 462 422 462 260 c 0
613 465 m 1
 523 465 l 1
 523 520 l 1
 613 520 l 1
 613 465 l 1
613 -250 m 1
 523 -250 l 1
 523 -195 l 5
 613 -195 l 5
 613 -250 l 1
523 -250 m 1
 433 -250 l 1
 433 520 l 1
 523 520 l 1
 523 -250 l 1
EndSplineSet
EndChar

StartChar: r
Encoding: 114 114 55
Width: 453
VWidth: 1155
Flags: HW
LayerCount: 2
Back
SplineSet
24 450 m 5
 193 450 l 5
 193 371 l 5
 197 371 l 5
 213.666992188 407 234.5 431.166992188 259.5 443.5 c 132
 284.5 455.833007812 306.333007812 462 325 462 c 4
 345 462 360.333007812 456.666992188 371 446 c 132
 381.666992188 435.333007812 387 419.333007812 387 398 c 4
 387 382 382 369.166992188 372 359.5 c 132
 362 349.833007812 349.333007812 345 334 345 c 4
 321.333007812 345 311 348.5 303 355.5 c 132
 295 362.5 291 370 291 378 c 4
 291 382 291.5 385.166992188 292.5 387.5 c 132
 293.5 389.833007812 294 392.666992188 294 396 c 260
 294 398.666992188 292.333007812 401.5 289 404.5 c 132
 285.666992188 407.5 280 409 272 409 c 260
 263.333007812 409 253.666992188 404.166992188 243 394.5 c 132
 232.333007812 384.833007812 223.666992188 373 217 359 c 132
 210.333007812 345 204.666992188 328.833007812 200 310.5 c 132
 195.333007812 292.166992188 193 272.666992188 193 252 c 6
 193 25 l 5
 283 25 l 5
 283 0 l 5
 24 0 l 5
 24 25 l 5
 103 25 l 5
 103 425 l 5
 24 425 l 5
 24 450 l 5
EndSplineSet
Fore
SplineSet
338 466 m 1
 338 476 332 486 308 486 c 0
 240 486 190 386 190 283 c 1
 166 283 l 1
 166 375 189 530 330 530 c 0
 406 530 438 484 438 426 c 1
 338 466 l 1
10 55 m 1
 100 55 l 1
 100 0 l 1
 10 0 l 1
 10 55 l 1
10 520 m 1
 100 520 l 1
 100 465 l 1
 10 465 l 1
 10 520 l 1
100 520 m 1
 190 520 l 1
 190 0 l 1
 100 0 l 1
 100 520 l 1
190 55 m 1
 280 55 l 1
 280 0 l 1
 190 0 l 1
 190 55 l 1
315 411 m 0
 315 447 338 454 338 466 c 1
 438 426 l 1
 438 384 411 360 376 360 c 0
 342 360 315 380 315 411 c 0
EndSplineSet
EndChar

StartChar: s
Encoding: 115 115 56
Width: 470
VWidth: 1155
Flags: HW
LayerCount: 2
Back
SplineSet
219 -12 m 4
 191 -12 164.333007812 -7.3330078125 139 2 c 132
 113.666992188 11.3330078125 93 23.6669921875 77 39 c 5
 62 0 l 5
 33 0 l 5
 33 153 l 5
 65 153 l 5
 70 134 l 6
 79.3330078125 98 96 70.6669921875 120 52 c 132
 144 33.3330078125 176.666992188 24 218 24 c 4
 251.333007812 24 274.666992188 29.8330078125 288 41.5 c 132
 301.333007812 53.1669921875 308 70 308 92 c 260
 308 116 299.166992188 135.333007812 281.5 150 c 4
 265.833007812 163.333007812 238 173.666992188 198 181 c 4
 144.666992188 191.666992188 106.166992188 206.166992188 82.5 224.5 c 4
 53.5 248.166992188 39 278.666992188 39 316 c 4
 39 363.333007812 52.6669921875 399.5 80 424.5 c 132
 107.333007812 449.5 146.333007812 462 197 462 c 4
 225.666992188 462 250.5 458 271.5 450 c 132
 292.5 442 307.333007812 431 316 417 c 5
 327 450 l 5
 353 450 l 5
 353 305 l 5
 322 305 l 5
 319 320 l 6
 311.666992188 357.333007812 298.833007812 384.333007812 280.5 401 c 132
 262.166992188 417.666992188 235 426 199 426 c 4
 167 426 143.166992188 419.833007812 127.5 407.5 c 132
 111.833007812 395.166992188 104 378 104 356 c 132
 104 334 111.5 317.833007812 126.5 307.5 c 4
 146.833007812 293.166992188 176.333007812 281.333007812 215 272 c 4
 274.333007812 258.666992188 313.333007812 243.666992188 332 227 c 4
 359.333007812 203.666992188 373 174.333007812 373 139 c 4
 373 93 359 56.3330078125 331 29 c 132
 303 1.6669921875 265.666992188 -12 219 -12 c 4
EndSplineSet
Fore
SplineSet
47 380 m 5
 125 406 l 5
 125 266 440 360 440 152 c 5
 357 133 l 5
 357 270 47 184 47 380 c 5
105 67 m 17
 80 -10 l 9
 80 112 l 1
 105 67 l 17
85 173 m 1
 80 -10 l 1
 30 -10 l 1
 30 173 l 1
 85 173 l 1
80 97 m 1
 85 173 l 1
 85 80 171 40 233 40 c 0
 313 40 357 82 357 133 c 1
 440 152 l 1
 440 48 360 -12 253 -12 c 0
 144 -12 80 69 80 97 c 1
347 453 m 17
 372 530 l 9
 372 408 l 1
 347 453 l 17
367 350 m 1
 372 530 l 1
 422 530 l 1
 422 350 l 1
 367 350 l 1
369 423 m 1
 367 350 l 1
 367 443 285 481 233 481 c 0
 170 481 125 453 125 406 c 1
 47 380 l 1
 47 484 127 532 212 532 c 0
 320 532 369 449 369 423 c 1
EndSplineSet
EndChar

StartChar: t
Encoding: 116 116 57
Width: 385
VWidth: 1155
Flags: HW
LayerCount: 2
Back
SplineSet
184 -13 m 4
 128.666992188 -13 101 15 101 71 c 6
 101 424 l 5
 20 424 l 5
 20 449 l 5
 48.6669921875 451.666992188 76.3330078125 467.333007812 103 496 c 4
 121 515.333007812 141 557.333007812 163 622 c 5
 186 622 l 5
 186 449 l 5
 301 449 l 5
 301 424 l 5
 186 424 l 5
 186 78 l 6
 186 48 198.333007812 33 223 33 c 4
 237 33 249.666992188 37.8330078125 261 47.5 c 132
 272.333007812 57.1669921875 284.666992188 73.3330078125 298 96 c 5
 318 85 l 5
 300.666992188 48.3330078125 281.666992188 22.8330078125 261 8.5 c 132
 240.333007812 -5.8330078125 214.666992188 -13 184 -13 c 4
EndSplineSet
Fore
SplineSet
20 520 m 21
 106 520 148 523 148 700 c 13
 148 520 l 5
 20 520 l 21
148 520 m 5
 148 700 l 5
 203 700 l 5
 203 520 l 5
 148 520 l 5
20 520 m 5
 350 520 l 5
 350 465 l 5
 20 465 l 5
 20 520 l 5
360 107 m 1
 341 43 291 -12 224 -12 c 0
 142 -12 113 31 113 106 c 1
 203 107 l 1
 203 67 220 50 247 50 c 0
 278 50 304 77 322 121 c 1
 360 107 l 1
203 498 m 1
 203 107 l 1
 113 106 l 1
 113 498 l 1
 203 498 l 1
EndSplineSet
EndChar

StartChar: u
Encoding: 117 117 58
Width: 675
VWidth: 1155
Flags: HW
LayerCount: 2
Back
SplineSet
487 25 m 5
 566 25 l 5
 566 0 l 5
 402 0 l 5
 402 78 l 5
 398 78 l 5
 383.333007812 52 363.5 30.5 338.5 13.5 c 132
 313.5 -3.5 279 -12 235 -12 c 4
 203 -12 176.5 -1.5 155.5 19.5 c 132
 134.5 40.5 124 66.3330078125 124 97 c 6
 124 425 l 5
 46 425 l 5
 46 450 l 5
 209 450 l 5
 209 100 l 6
 209 74.6669921875 214.833007812 55.8330078125 226.5 43.5 c 132
 238.166992188 31.1669921875 252.666992188 25 270 25 c 4
 291.333007812 25 309.166992188 29.8330078125 323.5 39.5 c 132
 337.833007812 49.1669921875 350.666992188 61.8330078125 362 77.5 c 4
 371.333007812 90.5 380.833007812 110.5 390.5 137.5 c 4
 398.166992188 159.166992188 402 186.333007812 402 219 c 6
 402 425 l 5
 320 425 l 5
 320 450 l 5
 487 450 l 5
 487 25 l 5
EndSplineSet
Fore
SplineSet
120 465 m 1
 30 465 l 1
 30 520 l 1
 120 520 l 1
 120 465 l 1
465 465 m 1
 375 465 l 1
 375 520 l 1
 465 520 l 1
 465 465 l 1
645 0 m 1
 555 0 l 1
 555 55 l 5
 645 55 l 5
 645 0 l 1
210 162 m 1
 210 88 239 37 305 37 c 0
 403 37 465 134 465 237 c 1
 494 237 l 1
 494 135 445 -10 282 -10 c 0
 155 -10 120 44 120 151 c 1
 210 162 l 1
210 162 m 1
 120 151 l 1
 120 520 l 1
 210 520 l 1
 210 162 l 1
555 0 m 1
 465 0 l 1
 465 520 l 1
 555 520 l 1
 555 0 l 1
EndSplineSet
EndChar

StartChar: v
Encoding: 118 118 59
Width: 589
VWidth: 1155
Flags: HW
LayerCount: 2
Back
SplineSet
14 450 m 5
 238 450 l 5
 238 425 l 5
 178 425 l 5
 309 104 l 5
 423 425 l 5
 354 425 l 5
 354 450 l 5
 533 450 l 5
 533 425 l 5
 459 425 l 5
 297 -12 l 5
 268 -12 l 5
 75 425 l 5
 14 425 l 5
 14 450 l 5
EndSplineSet
Fore
SplineSet
276 465 m 1
 5 465 l 1
 5 520 l 1
 276 520 l 1
 276 465 l 1
584 465 m 1
 360 465 l 1
 360 520 l 1
 584 520 l 1
 584 465 l 1
338 35 m 5
 273 -10 l 5
 70 520 l 1
 170 520 l 1
 338 35 l 5
327 -10 m 5
 273 -10 l 5
 468 520 l 1
 525 520 l 1
 327 -10 l 5
EndSplineSet
EndChar

StartChar: w
Encoding: 119 119 60
Width: 875
VWidth: 1155
Flags: HW
LayerCount: 2
Back
SplineSet
45 425 m 5
 -17 425 l 5
 -17 450 l 5
 190 450 l 5
 190 425 l 5
 133 425 l 5
 241 109 l 5
 359 450 l 5
 397 450 l 5
 508 127 l 5
 601 425 l 5
 527 425 l 5
 527 450 l 5
 708 450 l 5
 708 425 l 5
 636 425 l 5
 490 -12 l 5
 461 -12 l 5
 348 324 l 5
 228 -12 l 5
 199 -12 l 5
 45 425 l 5
EndSplineSet
Fore
SplineSet
870 465 m 1
 616 465 l 1
 616 520 l 1
 870 520 l 1
 870 465 l 1
636 35 m 1
 569 -10 l 1
 414 473 l 1
 480 520 l 1
 636 35 l 1
628 -10 m 1
 569 -10 l 1
 729 520 l 1
 791 520 l 1
 628 -10 l 1
296 465 m 1
 5 465 l 1
 5 520 l 1
 296 520 l 1
 296 465 l 1
330 34 m 1
 263 -11 l 1
 70 520 l 1
 164 520 l 1
 330 34 l 1
322 -11 m 1
 263 -11 l 1
 418 520 l 1
 480 520 l 1
 322 -11 l 1
EndSplineSet
EndChar

StartChar: x
Encoding: 120 120 61
Width: 564
VWidth: 1155
Flags: HW
LayerCount: 2
Back
SplineSet
248 450 m 5
 436 450 l 5
 436 425 l 5
 350 425 l 5
 241 250 l 5
 408 25 l 5
 461 25 l 5
 461 0 l 5
 248 0 l 5
 248 25 l 5
 307 25 l 5
 188 191 l 5
 82 25 l 5
 163 25 l 5
 163 0 l 5
 -35 0 l 5
 -35 25 l 5
 46 25 l 5
 168 217 l 5
 18 425 l 5
 -37 425 l 5
 -37 450 l 5
 176 450 l 5
 176 425 l 5
 116 425 l 5
 222 275 l 5
 314 425 l 5
 248 425 l 5
 248 450 l 5
EndSplineSet
Fore
SplineSet
328 55 m 1
 559 55 l 1
 559 0 l 1
 328 0 l 1
 328 55 l 1
5 55 m 1
 204 55 l 1
 204 0 l 1
 5 0 l 1
 5 55 l 1
251 465 m 1
 5 465 l 1
 5 520 l 1
 251 520 l 1
 251 465 l 1
559 465 m 1
 365 465 l 1
 365 520 l 1
 559 520 l 1
 559 465 l 1
544 0 m 1
 434 0 l 1
 40 520 l 1
 150 520 l 1
 544 0 l 1
99 0 m 5
 24 0 l 5
 464 520 l 5
 539 520 l 5
 99 0 l 5
EndSplineSet
EndChar

StartChar: y
Encoding: 121 121 62
Width: 628
VWidth: 1155
Flags: HW
LayerCount: 2
Back
SplineSet
14.1318359375 450 m 5
 232.131835938 450 l 5
 232.131835938 425 l 5
 166.131835938 425 l 5
 301.131835938 127 l 5
 408.131835938 425 l 5
 334.131835938 425 l 5
 334.131835938 450 l 5
 522.131835938 450 l 5
 522.131835938 425 l 5
 444.131835938 425 l 5
 207.131835938 -216 l 6
 198.46484375 -240 189.798828125 -258.5 181.131835938 -271.5 c 4
 176.46484375 -279.166992188 167.631835938 -288.666992188 154.631835938 -300 c 4
 140.96484375 -312 124.96484375 -318 106.631835938 -318 c 132
 88.298828125 -318 74.298828125 -312 64.6318359375 -300 c 4
 55.6318359375 -289.333007812 51.1318359375 -278 51.1318359375 -266 c 4
 51.1318359375 -252.666992188 55.96484375 -241.333007812 65.6318359375 -232 c 132
 75.298828125 -222.666992188 86.298828125 -218 98.6318359375 -218 c 4
 112.298828125 -218 123.631835938 -223.5 132.631835938 -234.5 c 132
 141.631835938 -245.5 148.798828125 -251 154.131835938 -251 c 132
 159.46484375 -251 163.631835938 -248.666992188 166.631835938 -244 c 4
 170.100585938 -237.595703125 172.600585938 -232.26171875 174.131835938 -228 c 6
 262.131835938 17 l 5
 73.1318359375 425 l 5
 14.1318359375 425 l 5
 14.1318359375 450 l 5
EndSplineSet
Fore
SplineSet
366 58 m 1
 325 -67 l 1
 59 520 l 1
 159 520 l 1
 366 58 l 1
623 465 m 1
 408 465 l 1
 408 520 l 1
 623 520 l 1
 623 465 l 1
276 465 m 1
 5 465 l 1
 5 520 l 1
 276 520 l 1
 276 465 l 1
11 -148 m 1
 11 -148 -25 -175 -25 -140 c 0
 -25 -95 4 -40 61 -40 c 0
 101 -40 122 -57 122 -96 c 1
 77 -119 l 1
 11 -148 l 1
47 -160 m 1
 -12 -157 l 1
 47 -96 l 1
 122 -96 l 1
 122 -136.856445312 90.796875 -152.569335938 64.74609375 -146 c 0
 50.361328125 -142.372070312 47 -149.00390625 47 -160 c 1
-25 -140 m 1
 47 -160 l 5
 47 -183 72 -201 114 -201 c 4
 198 -201 259.71484375 -76.87890625 288 -10 c 2
 505 520 l 1
 569 520 l 1
 352 -12 l 2
 301 -133 226 -260 116 -260 c 0
 27 -260 -25 -211 -25 -140 c 1
EndSplineSet
EndChar

StartChar: z
Encoding: 122 122 63
Width: 550
VWidth: 1155
Flags: HW
LayerCount: 2
Back
SplineSet
86 450 m 5
 440 450 l 5
 440 415 l 5
 155 25 l 5
 286 25 l 6
 332.666992188 25 366.666992188 34.6669921875 388 54 c 4
 407.690429688 72.3779296875 419.356445312 110.7109375 423 169 c 6
 424 185 l 5
 449 185 l 5
 449 0 l 5
 64 0 l 5
 64 35 l 5
 351 425 l 5
 249 425 l 6
 198.333007812 425 162.5 412.5 141.5 387.5 c 4
 122.5 364.5 112.333007812 327 111 275 c 5
 86 275 l 5
 86 450 l 5
EndSplineSet
Fore
SplineSet
385 470 m 1
 494 470 l 1
 148 50 l 1
 40 50 l 1
 385 470 l 1
304 50 m 17
 451 50 455 90 455 214 c 9
 455 50 l 1
 304 50 l 17
455 50 m 1
 455 214 l 1
 505 214 l 1
 505 50 l 1
 455 50 l 1
113 318 m 5
 63 318 l 5
 63 470 l 5
 113 470 l 5
 113 318 l 5
40 50 m 1
 505 50 l 1
 505 0 l 1
 40 0 l 1
 40 50 l 1
494 520 m 5
 494 470 l 5
 63 470 l 5
 63 520 l 5
 494 520 l 5
113 318 m 13
 113 470 l 5
 241 470 l 21
 117 470 113 419 113 318 c 13
EndSplineSet
EndChar

StartChar: comma
Encoding: 44 44 65
Width: 215
Flags: HW
LayerCount: 2
Fore
SplineSet
177 24 m 1
 177 -76 138 -156 38 -156 c 5
 38 -116 l 1
 93 -116 143 -59 127 11 c 1
 143.365234375 16.9150390625 148.764648438 78.1123046875 177 24 c 1
40 49 m 0
 40 82 69 108 107 108 c 0
 146 108 177 77 177 24 c 0
 177 9.2919921875 150.043945312 28.44140625 142 19.107421875 c 0
 118.506835938 -8.15625 111.291992188 -10 93 -10 c 0
 60 -10 40 16 40 49 c 0
EndSplineSet
EndChar

StartChar: exclam
Encoding: 33 33 67
Width: 319
Flags: HW
LayerCount: 2
Fore
SplineSet
218 659 m 4
 207 483 178 358 178 208 c 5
 140 208 l 5
 140 358 111 483 100 659 c 4
 100 666 100 672 100 678 c 4
 100 724 112 758 159 758 c 4
 206 758 219 724 219 678 c 4
 219 672 218 666 218 659 c 4
100 49 m 4
 100 82 126 108 159 108 c 4
 192 108 218 82 218 49 c 4
 218 16 192 -10 159 -10 c 4
 126 -10 100 16 100 49 c 4
EndSplineSet
EndChar

StartChar: quotesingle
Encoding: 39 39 70
Width: 200
Flags: HW
LayerCount: 2
Fore
SplineSet
148 679 m 6
 148 679 118 548 118 488 c 5
 80 488 l 5
 80 548 50 679 50 679 c 6
 42.1773362366 728.804292627 66 758 99 758 c 4
 132 758 155.822663763 728.804292627 148 679 c 6
EndSplineSet
EndChar

StartChar: question
Encoding: 63 63 75
Width: 550
Flags: HW
LayerCount: 2
Fore
SplineSet
217 349.01171875 m 1
 277 349.01171875 l 1
 277 209.01171875 l 1
 217 209.01171875 l 1
 217 349.01171875 l 1
45 591 m 1
 45 673 119 760 261 760 c 0
 422 760 500 680 500 550 c 1
 399 570 l 1
 399 644 360 718 261 718 c 0
 177 718 149 684 149 662 c 5
 45 591 l 1
149 662 m 5
 149 632 180 631 180 580 c 4
 180 538 147 520 112 520 c 0
 77 520 45 543 45 591 c 1
 149 662 l 5
189 50 m 0
 189 83 216 110 249 110 c 0
 282 110 309 83 309 50 c 0
 309 17 282 -10 249 -10 c 0
 216 -10 189 17 189 50 c 0
217 349.01171875 m 1
 324.477539062 380.314453125 399 466.76171875 399 570 c 1
 500 550 l 1
 500 430 388 310 217 310 c 1
 217 349.01171875 l 1
EndSplineSet
EndChar

StartChar: parenleft
Encoding: 40 40 76
Width: 445
Flags: HW
LayerCount: 2
Fore
SplineSet
415 -120 m 1
 405 -170 l 5
 182 -120 55 62 55 325 c 0
 55 588 182 750 405 800 c 1
 415 750 l 1
 241 700 170 557 170 325 c 0
 170 93 241 -70 415 -120 c 1
EndSplineSet
EndChar

StartChar: asterisk
Encoding: 42 42 78
Width: 635
VWidth: 1155
Flags: HW
LayerCount: 2
Fore
SplineSet
493 696 m 1
 510 706 l 1
 575 594 l 1
 558 584 l 1
 493 696 l 1
329 500 m 1
 306 540 l 1
 479 640 493 696 493 696 c 1
 558 584 l 1
 558 584 502 600 329 500 c 1
142 344 m 1
 125 334 l 1
 60 446 l 1
 77 456 l 1
 142 344 l 1
306 540 m 1
 329 500 l 1
 156 400 142 344 142 344 c 1
 77 456 l 1
 77 456 133 440 306 540 c 1
558 456 m 1
 575 446 l 1
 510 334 l 1
 493 344 l 1
 558 456 l 1
306 500 m 1
 329 540 l 1
 502 440 558 456 558 456 c 1
 493 344 l 1
 493 344 479 400 306 500 c 1
77 584 m 1
 60 594 l 1
 125 706 l 1
 142 696 l 1
 77 584 l 1
329 540 m 1
 306 500 l 1
 133 600 77 584 77 584 c 1
 142 696 l 1
 142 696 156 640 329 540 c 1
382 280 m 1
 382 260 l 1
 252 260 l 1
 252 280 l 1
 382 280 l 1
297 520 m 1
 337 520 l 1
 337 320 382 280 382 280 c 1
 252 280 l 1
 252 280 297 320 297 520 c 1
252 760 m 1
 252 780 l 1
 382 780 l 1
 382 760 l 1
 252 760 l 1
337 520 m 1
 297 520 l 1
 297 720 252 760 252 760 c 1
 382 760 l 1
 382 760 337 720 337 520 c 1
EndSplineSet
EndChar

StartChar: at
Encoding: 64 64 79
Width: 1060
VWidth: 1155
Flags: HW
LayerCount: 2
Back
SplineSet
352 260 m 4
 378 374 345 478 254 478 c 4
 170 478 90 374 64 260 c 4
 38 146 70 42 154 42 c 4
 245 42 326 146 352 260 c 4
381 260 m 4
 344 98 245 -10 124 -10 c 4
 5 -10 -75 90 -36 260 c 4
 3 430 129 529 248 529 c 4
 369 529 418 422 381 260 c 4
502 520 m 5
 382 0 l 5
 292 0 l 5
 412 520 l 5
 502 520 l 5
EndSplineSet
Fore
SplineSet
835 -64 m 1
 751 -162 632 -214 469 -214 c 0
 326 -214 65 -112 65 221 c 1
 170 231 l 1
 170 -71 351 -159 495 -159 c 4
 599 -159 706 -123 796 -25 c 1
 835 -64 l 1
802 520 m 1
 730 210 l 1
 640 210 l 1
 712 520 l 1
 802 520 l 1
693 359 m 0
 693 192.828125 584 70 484 70 c 0
 405 70 334 125.583984375 334 230 c 0
 334 380 449 529 568 529 c 0
 649 529 693 461 693 359 c 0
664 346 m 0
 664 387.927734375 650 478 584 478 c 0
 510 478 435 364 435 240 c 0
 435 173.072265625 450 122 514 122 c 0
 575 122 664 218 664 346 c 0
640 210 m 1
 730 210 l 1
 728 197 716 132 763 132 c 0
 864 132 942 271 942 425 c 1
 1005 421 l 1
 1005 261 912 70 741 70 c 0
 652 70 627 148 640 210 c 1
942 425 m 1
 942 602 786 737 602 737 c 0
 358 737 170 503 170 231 c 1
 65 221 l 1
 65 554 312 790 585 790 c 0
 858 790 1005 604 1005 421 c 1
 942 425 l 1
EndSplineSet
EndChar

StartChar: dollar
Encoding: 36 36 80
Width: 660
Flags: HW
LayerCount: 2
Fore
SplineSet
330 835 m 1
 385 835 l 1
 325 -85 l 5
 270 -85 l 5
 330 835 l 1
135 130 m 1
 46 186 l 1
 46 234 81 252 110 252 c 0
 137 252 167 231 167 194 c 0
 167 158 135 153 135 130 c 1
485 635 m 1
 574 579 l 1
 574 531 539 513 510 513 c 0
 483 513 453 534 453 571 c 0
 453 607 485 612 485 635 c 1
46 186 m 1
 135 130 l 1
 135 101 186 41 330 41 c 0
 466 41 520 121 520 190 c 1
 610 215 l 1
 610 75 511 -10 330 -10 c 0
 144 -10 46 76 46 186 c 1
80 555 m 1
 170 585 l 1
 170 375 610 535 610 215 c 1
 520 190 l 1
 520 420 80 265 80 555 c 1
574 579 m 1
 485 635 l 1
 485 664 444 709 330 709 c 0
 224 709 170 654 170 585 c 1
 80 555 l 1
 80 695 199 760 320 760 c 0
 446 760 574 719 574 579 c 1
EndSplineSet
EndChar
